<svg xmlns="http://www.w3.org/2000/svg" xmlns:xlink="http://www.w3.org/1999/xlink" width="120"
  zoomAndPan="magnify" viewBox="0 0 90 74.999997" height="100" preserveAspectRatio="xMidYMid meet"
  version="1.0">
  <defs>
    <clipPath id="6a47b97d0f">
      <path d="M 25 1.042969 L 84 1.042969 L 84 41 L 25 41 Z M 25 1.042969 " clip-rule="nonzero" />
    </clipPath>
    <clipPath id="3582845797">
      <path d="M 3.3125 41 L 85.8125 41 L 85.8125 73.042969 L 3.3125 73.042969 Z M 3.3125 41 "
        clip-rule="nonzero" />
    </clipPath>
  </defs>
  <g clip-path="url(#6a47b97d0f)">
    <path fill="#ff6b0c"
      d="M 25.449219 24.613281 L 25.449219 29.945312 C 25.449219 30.703125 26.070312 31.324219 26.832031 31.324219 L 38.003906 31.324219 C 37.933594 31.945312 37.898438 32.582031 37.898438 33.222656 L 37.898438 38.742188 C 37.898438 39.503906 38.519531 40.125 39.28125 40.125 L 69.714844 40.125 C 70.472656 40.125 71.097656 39.503906 71.097656 38.742188 L 71.097656 33.222656 C 71.097656 32.582031 71.0625 31.945312 70.992188 31.324219 L 82.164062 31.324219 C 82.921875 31.324219 83.546875 30.703125 83.546875 29.945312 L 83.546875 24.613281 C 83.546875 19.417969 80.15625 15.019531 75.472656 13.464844 C 76.785156 12.15625 77.582031 10.34375 77.582031 8.34375 C 77.582031 4.320312 74.296875 1.042969 70.265625 1.042969 C 66.324219 1.042969 63.109375 4.167969 62.953125 8.050781 C 61.984375 4.027344 58.351562 1.042969 54.03125 1.042969 C 49.933594 1.042969 46.457031 3.71875 45.265625 7.429688 C 44.816406 3.839844 41.738281 1.042969 38.019531 1.042969 C 33.992188 1.042969 30.707031 4.320312 30.707031 8.34375 C 30.707031 10.429688 31.585938 12.328125 33.023438 13.65625 C 28.597656 15.347656 25.449219 19.625 25.449219 24.613281 Z M 80.78125 24.613281 L 80.78125 28.5625 L 70.421875 28.5625 C 69.195312 24.386719 66.359375 20.886719 62.625 18.78125 C 64.320312 16.796875 66.808594 15.625 69.472656 15.625 L 71.789062 15.625 C 76.75 15.640625 80.78125 19.660156 80.78125 24.613281 Z M 70.265625 3.804688 C 72.773438 3.804688 74.8125 5.839844 74.8125 8.34375 C 74.8125 10.84375 72.773438 12.878906 70.265625 12.878906 C 67.757812 12.878906 65.71875 10.84375 65.71875 8.34375 C 65.71875 5.839844 67.757812 3.804688 70.265625 3.804688 Z M 63.230469 10.308594 C 63.59375 11.601562 64.300781 12.757812 65.269531 13.65625 C 63.210938 14.449219 61.398438 15.796875 60.046875 17.609375 C 59.925781 17.554688 59.804688 17.519531 59.683594 17.488281 C 61.8125 15.8125 63.210938 13.226562 63.230469 10.308594 Z M 54.03125 3.804688 C 57.574219 3.804688 60.480469 6.6875 60.480469 10.238281 C 60.480469 13.792969 57.59375 16.675781 54.03125 16.675781 C 50.46875 16.675781 47.582031 13.777344 47.582031 10.238281 C 47.582031 6.703125 50.46875 3.804688 54.03125 3.804688 Z M 54.496094 19.417969 C 62.121094 19.417969 68.332031 25.613281 68.332031 33.222656 L 68.332031 37.363281 L 40.664062 37.363281 L 40.664062 33.222656 C 40.664062 25.613281 46.871094 19.417969 54.496094 19.417969 Z M 44.847656 10.914062 C 44.953125 12.34375 45.386719 13.691406 46.078125 14.863281 C 45.195312 14.261719 44.226562 13.792969 43.207031 13.464844 C 43.914062 12.742188 44.488281 11.878906 44.847656 10.914062 Z M 38.003906 3.804688 C 40.507812 3.804688 42.550781 5.839844 42.550781 8.34375 C 42.550781 10.84375 40.507812 12.878906 38.003906 12.878906 C 35.496094 12.878906 33.453125 10.84375 33.453125 8.34375 C 33.453125 5.839844 35.496094 3.804688 38.003906 3.804688 Z M 37.207031 15.640625 L 39.523438 15.640625 C 42.1875 15.640625 44.660156 16.796875 46.371094 18.796875 C 42.636719 20.902344 39.800781 24.40625 38.574219 28.582031 L 28.214844 28.582031 L 28.214844 24.628906 C 28.214844 19.660156 32.246094 15.640625 37.207031 15.640625 Z M 37.207031 15.640625 "
      fill-opacity="1" fill-rule="nonzero" />
  </g>
  <g clip-path="url(#3582845797)">
    <path fill="#ff6b0c"
      d="M 16.183594 41.074219 L 4.699219 41.074219 C 3.941406 41.074219 3.316406 41.695312 3.316406 42.453125 L 3.316406 67.988281 C 3.316406 68.746094 3.941406 69.367188 4.699219 69.367188 L 16.183594 69.367188 C 16.941406 69.367188 17.566406 68.746094 17.566406 67.988281 L 17.566406 65.796875 L 23.097656 65.796875 L 39.507812 70.992188 C 43.222656 72.371094 46.355469 73.042969 49.464844 73.042969 C 52.59375 73.042969 55.726562 72.355469 59.460938 70.972656 C 59.597656 70.921875 59.738281 70.851562 59.859375 70.75 L 83.890625 51.183594 C 83.960938 51.113281 84.03125 51.046875 84.097656 50.976562 C 85.8125 48.855469 85.722656 45.609375 83.890625 43.589844 C 82.078125 41.574219 79.152344 41.367188 77.113281 43.125 L 65.113281 52.804688 C 65.113281 52.683594 65.113281 52.5625 65.113281 52.441406 C 65.0625 49.5625 62.796875 47.199219 60.046875 47.199219 L 46.71875 47.199219 C 45.957031 47.199219 45.230469 46.75 44.78125 46.007812 C 44.675781 45.851562 44.554688 45.714844 44.398438 45.59375 C 38.746094 41.503906 31.605469 40.726562 25.328125 43.523438 L 23.011719 44.558594 L 17.566406 44.558594 L 17.566406 42.453125 C 17.566406 41.695312 16.960938 41.074219 16.183594 41.074219 Z M 10.234375 64.539062 C 9.472656 64.539062 8.851562 63.917969 8.851562 63.15625 C 8.851562 62.398438 9.472656 61.777344 10.234375 61.777344 C 10.996094 61.777344 11.617188 62.398438 11.617188 63.15625 C 11.617188 63.917969 10.996094 64.539062 10.234375 64.539062 Z M 14.796875 45.957031 L 14.796875 66.609375 L 12.535156 66.609375 C 13.640625 65.867188 14.382812 64.605469 14.382812 63.15625 C 14.382812 60.878906 12.515625 59.015625 10.234375 59.015625 C 7.953125 59.015625 6.082031 60.878906 6.082031 63.15625 C 6.082031 64.589844 6.828125 65.867188 7.933594 66.609375 L 6.082031 66.609375 L 6.082031 43.832031 L 14.796875 43.832031 Z M 23.324219 47.335938 C 23.511719 47.335938 23.703125 47.300781 23.875 47.214844 L 26.46875 46.058594 C 31.761719 43.710938 37.761719 44.332031 42.585938 47.699219 C 43.550781 49.128906 45.074219 49.957031 46.734375 49.957031 L 60.066406 49.957031 C 61.308594 49.957031 62.347656 51.097656 62.363281 52.476562 C 62.382812 53.253906 62.105469 53.976562 61.605469 54.480469 C 61.363281 54.71875 61.066406 54.910156 60.773438 55.015625 C 60.375 55.082031 59.980469 55.117188 59.582031 55.117188 L 44.746094 55.117188 C 43.984375 55.117188 43.363281 55.738281 43.363281 56.496094 C 43.363281 57.257812 43.984375 57.878906 44.746094 57.878906 L 60.203125 57.878906 C 60.617188 57.878906 61.035156 57.824219 61.429688 57.722656 C 63.160156 57.410156 64.785156 56.652344 66.21875 55.515625 L 78.910156 45.265625 C 78.929688 45.246094 78.929688 45.246094 78.945312 45.230469 C 79.847656 44.453125 81.074219 44.558594 81.886719 45.4375 C 82.785156 46.421875 82.855469 48.058594 82.058594 49.148438 L 58.335938 68.472656 C 51.628906 70.921875 47.253906 70.886719 40.492188 68.386719 C 40.476562 68.386719 40.457031 68.367188 40.421875 68.367188 L 23.789062 63.089844 C 23.652344 63.054688 23.511719 63.019531 23.375 63.019531 L 17.566406 63.019531 L 17.566406 47.320312 L 23.324219 47.320312 Z M 23.324219 47.335938 "
      fill-opacity="1" fill-rule="nonzero" />
  </g>
</svg>