<svg xmlns="http://www.w3.org/2000/svg" xmlns:xlink="http://www.w3.org/1999/xlink" width="100"
  zoomAndPan="magnify" viewBox="0 0 75 74.999997" height="100" preserveAspectRatio="xMidYMid meet"
  version="1.0">
  <defs>
    <clipPath id="be87513888">
      <path
        d="M 1.222656 1.222656 L 73.972656 1.222656 L 73.972656 73.972656 L 1.222656 73.972656 Z M 1.222656 1.222656 "
        clip-rule="nonzero" />
    </clipPath>
  </defs>
  <g clip-path="url(#be87513888)">
    <path fill="#ff6b0c"
      d="M 16.40625 35.515625 L 16.40625 8.316406 C 16.40625 5.890625 18.382812 3.914062 20.808594 3.914062 L 21.355469 3.914062 L 21.355469 3.203125 C 21.355469 2.109375 22.246094 1.222656 23.335938 1.222656 L 24.933594 1.222656 C 26.027344 1.222656 26.914062 2.109375 26.914062 3.203125 L 26.914062 3.914062 L 30.328125 3.914062 L 30.328125 3.203125 C 30.328125 2.109375 31.21875 1.222656 32.308594 1.222656 L 33.910156 1.222656 C 35 1.222656 35.890625 2.109375 35.890625 3.203125 L 35.890625 3.914062 L 39.300781 3.914062 L 39.300781 3.203125 C 39.300781 2.109375 40.191406 1.222656 41.28125 1.222656 L 42.882812 1.222656 C 43.972656 1.222656 44.863281 2.109375 44.863281 3.203125 L 44.863281 3.914062 L 48.277344 3.914062 L 48.277344 3.203125 C 48.277344 2.109375 49.167969 1.222656 50.257812 1.222656 L 51.855469 1.222656 C 52.949219 1.222656 53.835938 2.109375 53.835938 3.203125 L 53.835938 3.914062 L 54.382812 3.914062 C 56.808594 3.914062 58.785156 5.890625 58.785156 8.316406 L 58.785156 30.625 C 58.785156 31.839844 58.355469 32.882812 57.496094 33.738281 L 52.609375 38.628906 C 51.75 39.484375 50.707031 39.917969 49.496094 39.917969 L 20.808594 39.917969 C 18.382812 39.917969 16.40625 37.9375 16.40625 35.515625 Z M 21.355469 6.261719 L 20.808594 6.261719 C 19.675781 6.261719 18.753906 7.183594 18.753906 8.316406 L 18.753906 10.960938 L 56.4375 10.960938 L 56.4375 8.316406 C 56.4375 7.183594 55.515625 6.261719 54.382812 6.261719 L 53.835938 6.261719 L 53.835938 7.289062 C 53.835938 8.382812 52.949219 9.269531 51.855469 9.269531 L 50.257812 9.269531 C 49.167969 9.269531 48.277344 8.382812 48.277344 7.289062 L 48.277344 6.261719 L 44.863281 6.261719 L 44.863281 7.289062 C 44.863281 8.382812 43.972656 9.269531 42.882812 9.269531 L 41.28125 9.269531 C 40.191406 9.269531 39.300781 8.382812 39.300781 7.289062 L 39.300781 6.261719 L 35.890625 6.261719 L 35.890625 7.289062 C 35.890625 8.382812 35 9.269531 33.910156 9.269531 L 32.308594 9.269531 C 31.21875 9.269531 30.328125 8.382812 30.328125 7.289062 L 30.328125 6.261719 L 26.914062 6.261719 L 26.914062 7.289062 C 26.914062 8.382812 26.027344 9.269531 24.933594 9.269531 L 23.335938 9.269531 C 22.246094 9.269531 21.355469 8.382812 21.355469 7.289062 Z M 24.570312 6.925781 L 24.570312 3.566406 L 23.703125 3.566406 L 23.703125 6.925781 Z M 33.542969 6.925781 L 33.542969 3.566406 L 32.675781 3.566406 L 32.675781 6.925781 Z M 42.515625 5.066406 L 42.515625 3.566406 L 41.648438 3.566406 L 41.648438 6.925781 L 42.515625 6.925781 L 42.515625 5.109375 C 42.515625 5.101562 42.515625 5.09375 42.515625 5.085938 C 42.515625 5.078125 42.515625 5.074219 42.515625 5.066406 Z M 51.492188 6.925781 L 51.492188 3.566406 L 50.625 3.566406 L 50.625 6.925781 Z M 18.753906 13.304688 L 18.753906 35.515625 C 18.753906 36.644531 19.675781 37.570312 20.808594 37.570312 C 20.808594 37.570312 49.605469 37.566406 49.660156 37.5625 L 49.660156 32.769531 C 49.660156 31.679688 50.546875 30.789062 51.640625 30.789062 L 56.433594 30.789062 C 56.4375 30.734375 56.4375 30.679688 56.4375 30.625 L 56.4375 13.304688 Z M 52.007812 35.910156 L 54.78125 33.136719 L 52.007812 33.136719 Z M 42.523438 29.203125 L 46.109375 29.203125 C 46.757812 29.203125 47.28125 29.730469 47.28125 30.378906 L 47.28125 33.960938 C 47.28125 34.609375 46.757812 35.136719 46.109375 35.136719 L 42.523438 35.136719 C 41.875 35.136719 41.351562 34.609375 41.351562 33.960938 L 41.351562 30.378906 C 41.351562 29.730469 41.875 29.203125 42.523438 29.203125 Z M 43.699219 31.550781 C 43.699219 31.550781 43.699219 32.789062 43.699219 32.789062 L 44.933594 32.789062 C 44.933594 32.789062 44.933594 31.550781 44.933594 31.550781 Z M 29.082031 29.203125 L 32.667969 29.203125 C 33.316406 29.203125 33.839844 29.730469 33.839844 30.378906 L 33.839844 33.960938 C 33.839844 34.609375 33.316406 35.136719 32.667969 35.136719 L 29.082031 35.136719 C 28.4375 35.136719 27.910156 34.609375 27.910156 33.960938 L 27.910156 30.378906 C 27.910156 29.730469 28.4375 29.203125 29.082031 29.203125 Z M 30.257812 31.550781 C 30.257812 31.550781 30.257812 32.789062 30.257812 32.789062 L 31.496094 32.789062 C 31.496094 32.789062 31.496094 31.550781 31.496094 31.550781 Z M 22.363281 29.203125 L 25.949219 29.203125 C 26.597656 29.203125 27.121094 29.730469 27.121094 30.378906 L 27.121094 33.960938 C 27.121094 34.609375 26.597656 35.136719 25.949219 35.136719 L 22.363281 35.136719 C 21.714844 35.136719 21.191406 34.609375 21.191406 33.960938 L 21.191406 30.378906 C 21.191406 29.730469 21.714844 29.203125 22.363281 29.203125 Z M 23.539062 31.550781 C 23.539062 31.550781 23.539062 32.789062 23.539062 32.789062 L 24.773438 32.789062 C 24.773438 32.789062 24.773438 31.550781 24.773438 31.550781 Z M 35.804688 15.765625 L 39.386719 15.765625 C 40.035156 15.765625 40.5625 16.289062 40.5625 16.9375 L 40.5625 20.523438 C 40.5625 21.167969 40.035156 21.695312 39.386719 21.695312 L 35.804688 21.695312 C 35.15625 21.695312 34.628906 21.167969 34.628906 20.523438 L 34.628906 16.9375 C 34.628906 16.289062 35.15625 15.765625 35.804688 15.765625 Z M 36.976562 18.109375 C 36.976562 18.109375 36.976562 19.347656 36.976562 19.347656 L 38.214844 19.347656 C 38.214844 19.347656 38.214844 18.109375 38.214844 18.109375 Z M 29.082031 15.765625 L 32.667969 15.765625 C 33.316406 15.765625 33.839844 16.289062 33.839844 16.9375 L 33.839844 20.523438 C 33.839844 21.167969 33.316406 21.695312 32.667969 21.695312 L 29.082031 21.695312 C 28.4375 21.695312 27.910156 21.167969 27.910156 20.523438 L 27.910156 16.9375 C 27.910156 16.289062 28.4375 15.765625 29.082031 15.765625 Z M 30.257812 18.109375 C 30.257812 18.109375 30.257812 19.347656 30.257812 19.347656 L 31.496094 19.347656 C 31.496094 19.347656 31.496094 18.109375 31.496094 18.109375 Z M 30.875 23.789062 L 31.511719 23.15625 C 31.96875 22.699219 32.710938 22.699219 33.171875 23.15625 C 33.628906 23.613281 33.628906 24.355469 33.171875 24.816406 L 32.535156 25.449219 L 33.171875 26.085938 C 33.628906 26.542969 33.628906 27.285156 33.171875 27.746094 C 32.710938 28.203125 31.96875 28.203125 31.511719 27.746094 L 30.875 27.109375 L 30.242188 27.746094 C 29.78125 28.203125 29.039062 28.203125 28.582031 27.746094 C 28.125 27.285156 28.125 26.542969 28.582031 26.085938 L 29.214844 25.449219 L 28.582031 24.816406 C 28.125 24.355469 28.125 23.613281 28.582031 23.15625 C 29.039062 22.699219 29.78125 22.699219 30.242188 23.15625 Z M 37.597656 30.511719 L 38.230469 29.875 C 38.6875 29.417969 39.433594 29.417969 39.890625 29.875 C 40.347656 30.332031 40.347656 31.078125 39.890625 31.535156 L 39.253906 32.171875 L 39.890625 32.804688 C 40.347656 33.261719 40.347656 34.007812 39.890625 34.464844 C 39.433594 34.921875 38.6875 34.921875 38.230469 34.464844 L 37.597656 33.828125 L 36.960938 34.464844 C 36.503906 34.921875 35.757812 34.921875 35.300781 34.464844 C 34.84375 34.007812 34.84375 33.261719 35.300781 32.804688 L 35.9375 32.171875 L 35.300781 31.535156 C 34.84375 31.078125 34.84375 30.332031 35.300781 29.875 C 35.757812 29.417969 36.503906 29.417969 36.960938 29.875 Z M 42.523438 22.484375 L 46.109375 22.484375 C 46.757812 22.484375 47.28125 23.011719 47.28125 23.65625 L 47.28125 27.242188 C 47.28125 27.890625 46.757812 28.414062 46.109375 28.414062 L 42.523438 28.414062 C 41.875 28.414062 41.351562 27.890625 41.351562 27.242188 L 41.351562 23.65625 C 41.351562 23.011719 41.875 22.484375 42.523438 22.484375 Z M 43.699219 24.832031 C 43.699219 24.832031 43.699219 26.070312 43.699219 26.070312 L 44.933594 26.070312 C 44.933594 26.070312 44.933594 24.832031 44.933594 24.832031 Z M 22.363281 22.484375 L 25.949219 22.484375 C 26.597656 22.484375 27.121094 23.011719 27.121094 23.65625 L 27.121094 27.242188 C 27.121094 27.890625 26.597656 28.414062 25.949219 28.414062 L 22.363281 28.414062 C 21.714844 28.414062 21.191406 27.890625 21.191406 27.242188 L 21.191406 23.65625 C 21.191406 23.011719 21.714844 22.484375 22.363281 22.484375 Z M 23.539062 24.832031 C 23.539062 24.832031 23.539062 26.070312 23.539062 26.070312 L 24.773438 26.070312 C 24.773438 26.070312 24.773438 24.832031 24.773438 24.832031 Z M 49.246094 22.484375 L 52.828125 22.484375 C 53.476562 22.484375 54 23.011719 54 23.65625 L 54 27.242188 C 54 27.890625 53.476562 28.414062 52.828125 28.414062 L 49.246094 28.414062 C 48.597656 28.414062 48.070312 27.890625 48.070312 27.242188 L 48.070312 23.65625 C 48.070312 23.011719 48.597656 22.484375 49.246094 22.484375 Z M 50.417969 24.832031 C 50.417969 24.832031 50.417969 26.070312 50.417969 26.070312 L 51.65625 26.070312 C 51.65625 26.070312 51.65625 24.832031 51.65625 24.832031 Z M 35.804688 22.484375 L 39.386719 22.484375 C 40.035156 22.484375 40.5625 23.011719 40.5625 23.65625 L 40.5625 27.242188 C 40.5625 27.890625 40.035156 28.414062 39.386719 28.414062 L 35.804688 28.414062 C 35.15625 28.414062 34.628906 27.890625 34.628906 27.242188 L 34.628906 23.65625 C 34.628906 23.011719 35.15625 22.484375 35.804688 22.484375 Z M 36.976562 24.832031 C 36.976562 24.832031 36.976562 26.070312 36.976562 26.070312 L 38.214844 26.070312 C 38.214844 26.070312 38.214844 24.832031 38.214844 24.832031 Z M 22.363281 15.765625 L 25.949219 15.765625 C 26.597656 15.765625 27.121094 16.289062 27.121094 16.9375 L 27.121094 20.523438 C 27.121094 21.167969 26.597656 21.695312 25.949219 21.695312 L 22.363281 21.695312 C 21.714844 21.695312 21.191406 21.167969 21.191406 20.523438 L 21.191406 16.9375 C 21.191406 16.289062 21.714844 15.765625 22.363281 15.765625 Z M 23.539062 18.109375 C 23.539062 18.109375 23.539062 19.347656 23.539062 19.347656 L 24.773438 19.347656 C 24.773438 19.347656 24.773438 18.109375 24.773438 18.109375 Z M 49.246094 15.765625 L 52.828125 15.765625 C 53.476562 15.765625 54 16.289062 54 16.9375 L 54 20.523438 C 54 21.167969 53.476562 21.695312 52.828125 21.695312 L 49.246094 21.695312 C 48.597656 21.695312 48.070312 21.167969 48.070312 20.523438 L 48.070312 16.9375 C 48.070312 16.289062 48.597656 15.765625 49.246094 15.765625 Z M 50.417969 18.109375 C 50.417969 18.109375 50.417969 19.347656 50.417969 19.347656 L 51.65625 19.347656 C 51.65625 19.347656 51.65625 18.109375 51.65625 18.109375 Z M 44.316406 17.070312 L 44.953125 16.433594 C 45.410156 15.976562 46.152344 15.976562 46.609375 16.433594 C 47.070312 16.894531 47.070312 17.636719 46.609375 18.09375 L 45.976562 18.730469 L 46.609375 19.363281 C 47.070312 19.824219 47.070312 20.566406 46.609375 21.023438 C 46.152344 21.480469 45.410156 21.480469 44.953125 21.023438 L 44.316406 20.390625 L 43.679688 21.023438 C 43.222656 21.480469 42.480469 21.480469 42.023438 21.023438 C 41.5625 20.566406 41.5625 19.824219 42.023438 19.363281 L 42.65625 18.730469 L 42.023438 18.09375 C 41.5625 17.636719 41.5625 16.894531 42.023438 16.433594 C 42.480469 15.976562 43.222656 15.976562 43.679688 16.433594 Z M 36.421875 47.414062 C 32.144531 47.414062 17.410156 47.414062 13.128906 47.414062 L 13.128906 50.773438 C 13.128906 51.421875 12.605469 51.945312 11.957031 51.945312 C 11.308594 51.945312 10.785156 51.421875 10.785156 50.773438 L 10.785156 46.242188 C 10.785156 45.59375 11.308594 45.070312 11.957031 45.070312 L 36.421875 45.070312 L 36.421875 41.675781 C 36.421875 41.027344 36.949219 40.503906 37.597656 40.503906 C 38.242188 40.503906 38.769531 41.027344 38.769531 41.675781 L 38.769531 45.070312 L 63.234375 45.070312 C 63.882812 45.070312 64.410156 45.59375 64.410156 46.242188 L 64.410156 50.773438 C 64.410156 51.421875 63.882812 51.945312 63.234375 51.945312 C 62.585938 51.945312 62.0625 51.421875 62.0625 50.773438 L 62.0625 47.414062 L 38.769531 47.414062 L 38.769531 50.738281 C 38.769531 51.386719 38.242188 51.914062 37.597656 51.914062 C 36.949219 51.914062 36.421875 51.386719 36.421875 50.738281 Z M 58.429688 52.5 L 67.175781 52.5 C 67.605469 52.5 67.976562 52.65625 68.28125 52.957031 C 68.28125 52.957031 68.285156 52.960938 68.285156 52.960938 C 68.285156 52.960938 73.519531 58.28125 73.519531 58.28125 C 73.816406 58.582031 73.972656 58.953125 73.972656 59.378906 L 73.972656 72.414062 C 73.972656 73.269531 73.269531 73.972656 72.414062 73.972656 L 58.429688 73.972656 C 57.566406 73.972656 56.867188 73.269531 56.867188 72.414062 L 56.867188 54.058594 C 56.867188 53.199219 57.566406 52.5 58.429688 52.5 Z M 59.214844 54.847656 L 59.214844 71.625 L 71.625 71.625 L 71.625 59.703125 C 70.769531 58.832031 67.707031 55.722656 66.847656 54.847656 Z M 62.410156 65.949219 C 61.761719 65.949219 61.238281 65.421875 61.238281 64.773438 C 61.238281 64.125 61.761719 63.601562 62.410156 63.601562 L 68.753906 63.601562 C 69.402344 63.601562 69.929688 64.125 69.929688 64.773438 C 69.929688 65.421875 69.402344 65.949219 68.753906 65.949219 Z M 62.410156 69.636719 C 61.761719 69.636719 61.238281 69.109375 61.238281 68.460938 C 61.238281 67.816406 61.761719 67.289062 62.410156 67.289062 L 68.753906 67.289062 C 69.402344 67.289062 69.929688 67.816406 69.929688 68.460938 C 69.929688 69.109375 69.402344 69.636719 68.753906 69.636719 Z M 62.410156 62.257812 C 61.761719 62.257812 61.238281 61.734375 61.238281 61.085938 C 61.238281 60.4375 61.761719 59.914062 62.410156 59.914062 L 68.753906 59.914062 C 69.402344 59.914062 69.929688 60.4375 69.929688 61.085938 C 69.929688 61.734375 69.402344 62.257812 68.753906 62.257812 Z M 28.035156 52.5 L 47.160156 52.5 C 48.574219 52.5 49.734375 53.660156 49.734375 55.074219 L 49.734375 71.386719 C 49.734375 72.8125 48.570312 73.972656 47.160156 73.972656 L 28.035156 73.972656 C 26.621094 73.972656 25.457031 72.8125 25.457031 71.386719 L 25.457031 55.074219 C 25.457031 53.660156 26.621094 52.5 28.035156 52.5 Z M 47.386719 63.363281 L 47.386719 55.074219 C 47.386719 54.949219 47.285156 54.847656 47.160156 54.847656 L 28.035156 54.847656 C 27.90625 54.847656 27.804688 54.949219 27.804688 55.074219 L 27.804688 64.53125 L 32.40625 61.042969 C 32.894531 60.671875 33.585938 60.742188 33.996094 61.199219 L 37.128906 64.730469 L 42.875 59.480469 C 43.121094 59.257812 43.449219 59.148438 43.777344 59.179688 C 44.109375 59.210938 44.410156 59.378906 44.609375 59.644531 Z M 27.804688 67.476562 L 27.804688 71.386719 C 27.804688 71.515625 27.90625 71.625 28.035156 71.625 L 47.160156 71.625 C 47.285156 71.625 47.386719 71.515625 47.386719 71.386719 L 47.386719 67.28125 L 43.503906 62.085938 L 35.851562 69.070312 C 35.375 69.507812 34.632812 69.472656 34.195312 68.996094 C 33.757812 68.515625 33.792969 67.773438 34.269531 67.335938 L 35.394531 66.3125 C 34.445312 65.246094 32.960938 63.570312 32.960938 63.570312 Z M 37.167969 61.371094 C 36.3125 61.371094 35.621094 60.679688 35.621094 59.832031 C 35.621094 58.984375 36.3125 58.285156 37.167969 58.285156 C 38.015625 58.285156 38.707031 58.984375 38.707031 59.832031 C 38.707031 60.679688 38.015625 61.371094 37.167969 61.371094 Z M 11.957031 52.5 C 17.882812 52.5 22.691406 57.308594 22.691406 63.234375 C 22.691406 69.160156 17.882812 73.972656 11.957031 73.972656 C 6.03125 73.972656 1.222656 69.160156 1.222656 63.234375 C 1.222656 57.308594 6.03125 52.5 11.957031 52.5 Z M 11.957031 54.847656 C 7.328125 54.847656 3.566406 58.605469 3.566406 63.234375 C 3.566406 67.867188 7.328125 71.625 11.957031 71.625 C 16.585938 71.625 20.347656 67.867188 20.347656 63.234375 C 20.347656 58.605469 16.585938 54.847656 11.957031 54.847656 Z M 16.921875 61.082031 C 17.691406 61.523438 18.167969 62.347656 18.167969 63.234375 C 18.167969 64.125 17.691406 64.945312 16.921875 65.390625 L 11.164062 68.714844 C 10.394531 69.160156 9.445312 69.160156 8.675781 68.714844 C 7.90625 68.269531 7.429688 67.449219 7.429688 66.5625 L 7.429688 59.910156 C 7.429688 59.019531 7.90625 58.199219 8.675781 57.753906 C 9.445312 57.308594 10.394531 57.308594 11.164062 57.753906 Z M 15.75 63.113281 L 9.988281 59.785156 C 9.945312 59.761719 9.890625 59.761719 9.847656 59.785156 C 9.804688 59.8125 9.777344 59.859375 9.777344 59.910156 L 9.777344 66.5625 C 9.777344 66.613281 9.804688 66.65625 9.847656 66.683594 C 9.890625 66.707031 9.945312 66.707031 9.988281 66.683594 L 15.75 63.359375 C 15.792969 63.332031 15.820312 63.285156 15.820312 63.234375 C 15.820312 63.183594 15.792969 63.136719 15.75 63.113281 Z M 15.75 63.113281 "
      fill-opacity="1" fill-rule="evenodd" />
  </g>
</svg>