<svg xmlns="http://www.w3.org/2000/svg" xmlns:xlink="http://www.w3.org/1999/xlink" width="120"
  zoomAndPan="magnify" viewBox="0 0 90 74.999997" height="100" preserveAspectRatio="xMidYMid meet"
  version="1.0">
  <defs>
    <clipPath id="f829dee870">
      <path d="M 2.332031 1.5 L 87.832031 1.5 L 87.832031 73.5 L 2.332031 73.5 Z M 2.332031 1.5 "
        clip-rule="nonzero" />
    </clipPath>
  </defs>
  <g clip-path="url(#f829dee870)">
    <path fill="#ff6b0c"
      d="M 82.261719 1.511719 L 7.90625 1.511719 C 5.175781 1.511719 2.953125 3.730469 2.953125 6.453125 L 2.953125 57.496094 C 2.953125 60.226562 5.175781 62.441406 7.90625 62.441406 L 32.089844 62.441406 L 32.089844 68.386719 L 31.445312 68.386719 C 30.035156 68.386719 28.886719 69.53125 28.886719 70.9375 C 28.886719 72.347656 30.035156 73.496094 31.445312 73.496094 L 58.714844 73.496094 C 60.128906 73.496094 61.273438 72.347656 61.273438 70.9375 C 61.273438 69.53125 60.128906 68.386719 58.714844 68.386719 L 58.078125 68.386719 L 58.078125 62.441406 L 82.261719 62.441406 C 84.992188 62.441406 87.214844 60.226562 87.214844 57.496094 L 87.214844 6.453125 C 87.214844 3.730469 84.992188 1.511719 82.261719 1.511719 Z M 83.378906 57.492188 C 83.378906 58.105469 82.875 58.609375 82.261719 58.609375 L 7.90625 58.609375 C 7.289062 58.609375 6.789062 58.109375 6.789062 57.492188 L 6.789062 6.453125 C 6.789062 5.84375 7.285156 5.339844 7.90625 5.339844 L 82.261719 5.339844 C 82.871094 5.339844 83.378906 5.839844 83.378906 6.453125 Z M 83.378906 57.492188 "
      fill-opacity="1" fill-rule="nonzero" />
  </g>
  <path fill="#ff6b0c"
    d="M 18.871094 34.84375 L 13.757812 34.84375 C 12.34375 34.84375 11.199219 35.984375 11.199219 37.394531 L 11.199219 54.085938 L 21.425781 54.085938 L 21.425781 37.394531 C 21.425781 35.984375 20.277344 34.84375 18.871094 34.84375 Z M 18.871094 34.84375 "
    fill-opacity="1" fill-rule="nonzero" />
  <path fill="#ff6b0c"
    d="M 33.253906 29.84375 L 28.144531 29.84375 C 26.730469 29.84375 25.582031 30.992188 25.582031 32.398438 L 25.582031 54.085938 L 35.8125 54.085938 L 35.8125 32.398438 C 35.8125 30.988281 34.664062 29.84375 33.253906 29.84375 Z M 33.253906 29.84375 "
    fill-opacity="1" fill-rule="nonzero" />
  <path fill="#ff6b0c"
    d="M 47.640625 39.574219 L 42.527344 39.574219 C 41.113281 39.574219 39.96875 40.722656 39.96875 42.128906 L 39.96875 54.085938 L 50.195312 54.085938 L 50.195312 42.128906 C 50.195312 40.722656 49.050781 39.574219 47.640625 39.574219 Z M 47.640625 39.574219 "
    fill-opacity="1" fill-rule="nonzero" />
  <path fill="#ff6b0c"
    d="M 62.023438 27.292969 L 56.914062 27.292969 C 55.5 27.292969 54.351562 28.441406 54.351562 29.84375 L 54.351562 54.085938 L 64.582031 54.085938 L 64.582031 29.84375 C 64.578125 28.441406 63.4375 27.292969 62.023438 27.292969 Z M 62.023438 27.292969 "
    fill-opacity="1" fill-rule="nonzero" />
  <path fill="#ff6b0c"
    d="M 76.40625 22.195312 L 71.296875 22.195312 C 69.882812 22.195312 68.734375 23.332031 68.734375 24.746094 L 68.734375 54.085938 L 78.964844 54.085938 L 78.964844 24.746094 C 78.964844 23.332031 77.824219 22.195312 76.40625 22.195312 Z M 76.40625 22.195312 "
    fill-opacity="1" fill-rule="nonzero" />
  <path fill="#ff6b0c"
    d="M 16.3125 28.769531 C 18.007812 28.769531 19.378906 27.394531 19.378906 25.703125 C 19.378906 25.6875 19.375 25.667969 19.375 25.652344 L 28.269531 22.5625 C 28.832031 23.289062 29.707031 23.765625 30.699219 23.765625 C 31.402344 23.765625 32.042969 23.519531 32.558594 23.121094 L 42.140625 29.605469 C 42.070312 29.871094 42.011719 30.148438 42.011719 30.433594 C 42.011719 32.128906 43.386719 33.496094 45.082031 33.496094 C 46.777344 33.496094 48.148438 32.128906 48.148438 30.433594 C 48.148438 30.023438 48.066406 29.632812 47.917969 29.273438 L 57.882812 20.765625 C 58.347656 21.046875 58.886719 21.21875 59.46875 21.21875 C 61.160156 21.21875 62.535156 19.847656 62.535156 18.15625 C 62.535156 18.132812 62.527344 18.105469 62.527344 18.089844 L 71.441406 14.921875 C 72.003906 15.644531 72.871094 16.117188 73.851562 16.117188 C 75.546875 16.117188 76.921875 14.742188 76.921875 13.054688 C 76.921875 11.359375 75.546875 9.988281 73.851562 9.988281 C 72.15625 9.988281 70.78125 11.359375 70.78125 13.054688 C 70.78125 13.074219 70.789062 13.101562 70.792969 13.121094 L 61.878906 16.285156 C 61.320312 15.5625 60.449219 15.089844 59.46875 15.089844 C 57.769531 15.089844 56.398438 16.460938 56.398438 18.15625 C 56.398438 18.566406 56.484375 18.960938 56.628906 19.320312 L 46.667969 27.828125 C 46.199219 27.546875 45.664062 27.375 45.082031 27.375 C 44.378906 27.375 43.734375 27.621094 43.214844 28.023438 L 33.632812 21.535156 C 33.710938 21.269531 33.761719 20.996094 33.761719 20.703125 C 33.761719 19.015625 32.390625 17.644531 30.699219 17.644531 C 29 17.644531 27.628906 19.015625 27.628906 20.703125 C 27.628906 20.722656 27.632812 20.742188 27.632812 20.757812 L 18.734375 23.847656 C 18.175781 23.121094 17.300781 22.636719 16.3125 22.636719 C 14.613281 22.636719 13.242188 24.011719 13.242188 25.703125 C 13.242188 27.390625 14.617188 28.769531 16.3125 28.769531 Z M 16.3125 28.769531 "
    fill-opacity="1" fill-rule="nonzero" />
</svg>