<svg xmlns="http://www.w3.org/2000/svg" xmlns:xlink="http://www.w3.org/1999/xlink" width="100"
  zoomAndPan="magnify" viewBox="0 0 75 74.999997" height="100" preserveAspectRatio="xMidYMid meet"
  version="1.0">
  <defs>
    <clipPath id="3efe67418d">
      <path d="M 0 1.5 L 71 1.5 L 71 73.5 L 0 73.5 Z M 0 1.5 " clip-rule="nonzero" />
    </clipPath>
  </defs>
  <g clip-path="url(#3efe67418d)">
    <path fill="#ff6b0c"
      d="M 67.496094 62.03125 C 67.074219 60.199219 66.1875 56.386719 65.757812 54.539062 C 65.5 53.488281 64.433594 53.152344 63.472656 53.5 L 61.714844 45.921875 C 75.550781 39.503906 71.796875 19.183594 56.515625 18.214844 L 56.515625 11.984375 C 56.515625 10.632812 55.40625 9.53125 54.046875 9.53125 L 50.398438 9.53125 C 49.992188 8.992188 48.710938 9.15625 48.070312 9.058594 C 47.976562 8.796875 47.875 8.546875 47.765625 8.3125 L 48.800781 7.128906 C 49.191406 6.683594 49.175781 6.023438 48.75 5.582031 L 46.621094 3.460938 C 46.195312 3.039062 45.511719 3.015625 45.066406 3.410156 L 43.878906 4.441406 C 43.632812 4.324219 43.382812 4.222656 43.125 4.132812 L 43.019531 2.566406 C 42.980469 1.972656 42.480469 1.507812 41.882812 1.507812 L 38.871094 1.507812 C 38.277344 1.507812 37.78125 1.972656 37.738281 2.566406 L 37.632812 4.132812 C 37.375 4.222656 37.121094 4.324219 36.875 4.441406 L 35.6875 3.410156 C 35.230469 3.011719 34.546875 3.039062 34.140625 3.460938 L 32.011719 5.582031 C 31.585938 6 31.5625 6.683594 31.957031 7.125 L 32.992188 8.308594 C 32.878906 8.550781 32.777344 8.800781 32.683594 9.054688 C 32.050781 9.152344 30.765625 8.988281 30.359375 9.527344 L 2.273438 9.527344 C 0.914062 9.527344 -0.195312 10.632812 -0.195312 11.984375 L -0.195312 45.886719 C -0.195312 47.238281 0.914062 48.339844 2.273438 48.339844 L 21.761719 48.339844 L 21.761719 52.523438 L 19.46875 52.523438 C 18.21875 52.523438 17.199219 53.539062 17.199219 54.785156 L 17.199219 56.617188 C 17.199219 57.027344 17.535156 57.359375 17.949219 57.359375 L 38.367188 57.359375 C 38.777344 57.359375 39.113281 57.027344 39.113281 56.617188 L 39.113281 54.785156 C 39.113281 53.539062 38.09375 52.523438 36.84375 52.523438 L 34.546875 52.523438 L 34.546875 48.339844 L 54.046875 48.339844 C 54.902344 48.339844 55.683594 47.890625 56.132812 47.183594 C 56.175781 47.183594 56.222656 47.179688 56.265625 47.179688 L 58.027344 54.75 C 57.023438 54.855469 56.195312 55.628906 56.433594 56.683594 C 56.613281 57.460938 58.121094 63.929688 58.25 64.496094 C 58.25 64.496094 60.066406 72.300781 60.066406 72.300781 C 60.210938 72.984375 60.867188 73.5 61.566406 73.492188 C 61.679688 73.492188 61.800781 73.476562 61.914062 73.453125 L 68.230469 71.996094 C 69.058594 71.808594 69.578125 70.980469 69.386719 70.15625 Z M 54.046875 11.019531 C 54.582031 11.019531 55.019531 11.453125 55.019531 11.984375 L 55.019531 18.210938 C 54.664062 18.230469 54.304688 18.28125 53.949219 18.308594 L 53.949219 12.828125 C 53.949219 12.417969 53.613281 12.082031 53.203125 12.082031 L 50.707031 12.082031 L 50.707031 11.019531 Z M 31.652344 10.699219 C 32.195312 10.109375 33.164062 10.90625 33.765625 10.242188 C 34.140625 9.644531 34.4375 8.921875 34.597656 8.234375 C 34.625 7.46875 33.664062 7.078125 33.304688 6.398438 C 33.855469 5.851562 34.40625 5.304688 34.957031 4.753906 C 35.640625 5.109375 36.027344 6.0625 36.796875 6.039062 C 37.328125 5.972656 37.8125 5.667969 38.316406 5.492188 C 39.5 5.171875 38.972656 3.929688 39.210938 2.996094 C 39.988281 2.996094 40.769531 2.996094 41.542969 2.996094 C 41.777344 3.730469 41.371094 4.6875 41.9375 5.210938 C 42.363281 5.535156 42.914062 5.65625 43.394531 5.882812 C 44.460938 6.488281 44.96875 5.246094 45.796875 4.753906 C 46.347656 5.300781 46.898438 5.851562 47.449219 6.398438 C 47.09375 7.078125 46.132812 7.46875 46.160156 8.234375 C 46.226562 8.761719 46.53125 9.238281 46.707031 9.738281 C 47.027344 10.910156 48.269531 10.390625 49.203125 10.628906 C 49.203125 11.402344 49.203125 12.179688 49.203125 12.953125 C 48.484375 13.15625 47.589844 12.808594 47.027344 13.304688 C 46.578125 13.84375 46.203125 14.589844 46.203125 15.296875 C 46.242188 16.066406 46.875 16.660156 47.460938 17.167969 C 46.90625 17.722656 46.351562 18.277344 45.796875 18.828125 C 45.152344 18.484375 44.792969 17.621094 44.0625 17.554688 C 43.570312 17.511719 43.140625 17.867188 42.667969 18.03125 C 41.167969 18.285156 41.789062 19.550781 41.542969 20.582031 C 40.765625 20.582031 39.988281 20.582031 39.210938 20.582031 C 38.976562 19.851562 39.386719 18.902344 38.824219 18.378906 C 38.398438 18.050781 37.839844 17.929688 37.359375 17.699219 C 36.296875 17.09375 35.789062 18.335938 34.957031 18.828125 C 34.40625 18.277344 33.855469 17.730469 33.304688 17.183594 C 34.113281 15.980469 35.191406 15.90625 34.210938 14.34375 C 33.808594 12.53125 32.976562 13.238281 31.542969 12.953125 C 31.542969 12.417969 31.335938 11.15625 31.652344 10.699219 Z M 30.097656 13.605469 C 30.402344 14.644531 31.84375 14.46875 32.6875 14.527344 C 32.777344 14.785156 32.878906 15.035156 32.996094 15.277344 C 32.996094 15.277344 31.960938 16.453125 31.957031 16.460938 C 31.945312 16.46875 31.941406 16.484375 31.933594 16.496094 C 31.570312 16.949219 31.617188 17.582031 32.011719 17.996094 C 32.011719 17.996094 34.128906 20.105469 34.128906 20.105469 C 34.550781 20.546875 35.238281 20.574219 35.683594 20.175781 L 36.878906 19.136719 C 37.125 19.253906 37.375 19.359375 37.632812 19.449219 C 37.78125 21.335938 37.445312 22.132812 39.761719 22.070312 C 42.46875 22.019531 43.050781 22.609375 43.125 19.449219 C 43.378906 19.355469 43.625 19.238281 43.875 19.136719 L 45.058594 20.167969 C 45.515625 20.582031 46.171875 20.492188 46.617188 20.117188 C 47.425781 19.175781 49.839844 17.878906 48.800781 16.453125 C 48.800781 16.453125 47.765625 15.273438 47.765625 15.273438 C 47.871094 15.03125 47.96875 14.773438 48.070312 14.523438 C 48.09375 14.460938 49.21875 14.488281 49.355469 14.472656 C 49.921875 14.425781 50.523438 14.167969 50.671875 13.570312 L 52.453125 13.570312 L 52.453125 18.578125 C 42.535156 20.640625 37.996094 33.269531 44.011719 41.265625 L 3.867188 41.265625 L 3.867188 13.570312 L 30.082031 13.570312 C 30.085938 13.585938 30.09375 13.59375 30.097656 13.605469 Z M 36.847656 54.015625 C 37.273438 54.015625 37.617188 54.363281 37.617188 54.785156 L 37.617188 55.875 L 18.695312 55.875 L 18.695312 54.785156 C 18.695312 54.359375 19.042969 54.015625 19.46875 54.015625 Z M 23.257812 52.527344 L 23.257812 48.347656 L 33.054688 48.347656 L 33.054688 52.527344 Z M 2.273438 46.855469 C 1.738281 46.855469 1.300781 46.421875 1.300781 45.886719 L 1.300781 11.984375 C 1.300781 11.453125 1.738281 11.019531 2.273438 11.019531 L 30.046875 11.019531 L 30.046875 12.082031 L 3.117188 12.082031 C 2.707031 12.082031 2.371094 12.417969 2.371094 12.828125 L 2.371094 42.007812 C 2.371094 42.421875 2.707031 42.753906 3.117188 42.753906 L 45.273438 42.753906 C 47.273438 44.824219 49.835938 46.207031 52.59375 46.855469 Z M 53.492188 45.5 C 47.066406 44.472656 42.105469 38.179688 42.734375 31.664062 C 43.378906 22.1875 54.445312 16.40625 62.695312 21.65625 C 74.75 29.335938 67.597656 47.84375 53.492188 45.5 Z M 57.777344 47.0625 C 58.617188 46.941406 59.503906 46.738281 60.308594 46.480469 L 62.019531 53.832031 L 59.484375 54.417969 Z M 57.929688 56.304688 C 59.503906 55.941406 62.714844 55.203125 64.246094 54.851562 C 64.265625 54.84375 64.296875 54.859375 64.300781 54.878906 C 64.300781 54.878906 65.082031 58.292969 65.082031 58.292969 L 58.722656 59.757812 Z M 59.054688 61.207031 L 65.414062 59.742188 L 65.925781 61.96875 L 59.566406 63.429688 Z M 61.523438 71.96875 L 59.898438 64.882812 L 66.257812 63.417969 L 67.894531 70.546875 Z M 67.140625 30.078125 C 65.691406 23.839844 59.402344 19.933594 53.140625 21.378906 C 39.664062 24.867188 41.996094 43.992188 55.769531 44.3125 C 63.148438 44.398438 68.902344 37.226562 67.140625 30.078125 Z M 58.0625 42.5625 C 52.597656 43.820312 47.121094 40.417969 45.855469 34.976562 C 44.59375 29.539062 48.011719 24.089844 53.476562 22.828125 C 58.804688 21.558594 64.441406 24.933594 65.683594 30.414062 C 66.949219 35.855469 63.53125 41.304688 58.0625 42.5625 Z M 40.378906 16.578125 C 46.742188 16.382812 46.726562 7.183594 40.378906 7.003906 C 34.019531 7.1875 34.035156 16.386719 40.378906 16.578125 Z M 37.3125 10.546875 C 38.910156 6.78125 44.582031 8.671875 43.574219 12.636719 C 42.21875 17.066406 35.726562 14.898438 37.3125 10.546875 Z M 7.21875 39.34375 L 10.398438 39.34375 C 10.8125 39.34375 11.144531 39.011719 11.144531 38.597656 L 11.144531 32.328125 C 11.144531 31.917969 10.8125 31.585938 10.398438 31.585938 L 7.21875 31.585938 C 6.804688 31.585938 6.472656 31.917969 6.472656 32.328125 L 6.472656 38.597656 C 6.472656 39.011719 6.804688 39.34375 7.21875 39.34375 Z M 7.964844 33.070312 L 9.648438 33.070312 L 9.648438 37.855469 L 7.964844 37.855469 Z M 13.308594 39.34375 L 16.488281 39.34375 C 16.902344 39.34375 17.238281 39.011719 17.238281 38.597656 L 17.238281 28.753906 C 17.238281 28.34375 16.902344 28.007812 16.488281 28.007812 L 13.308594 28.007812 C 12.898438 28.007812 12.5625 28.34375 12.5625 28.753906 L 12.5625 38.597656 C 12.5625 39.011719 12.898438 39.34375 13.308594 39.34375 Z M 14.058594 29.496094 L 15.742188 29.496094 L 15.742188 37.855469 L 14.058594 37.855469 Z M 19.402344 39.34375 L 22.582031 39.34375 C 22.996094 39.34375 23.332031 39.011719 23.332031 38.597656 L 23.332031 24.023438 C 23.332031 23.609375 22.996094 23.277344 22.582031 23.277344 L 19.402344 23.277344 C 18.992188 23.277344 18.65625 23.609375 18.65625 24.023438 L 18.65625 38.597656 C 18.65625 39.011719 18.988281 39.34375 19.402344 39.34375 Z M 20.152344 24.765625 L 21.835938 24.765625 L 21.835938 37.855469 L 20.152344 37.855469 Z M 25.496094 39.34375 L 28.675781 39.34375 C 29.089844 39.34375 29.425781 39.011719 29.425781 38.597656 L 29.425781 18.378906 C 29.425781 17.96875 29.089844 17.636719 28.675781 17.636719 L 25.496094 17.636719 C 25.085938 17.636719 24.75 17.96875 24.75 18.378906 L 24.75 38.597656 C 24.75 39.011719 25.082031 39.34375 25.496094 39.34375 Z M 26.246094 19.125 L 27.929688 19.125 L 27.929688 37.855469 L 26.246094 37.855469 Z M 26.246094 19.125 "
      fill-opacity="1" fill-rule="nonzero" />
  </g>
</svg>