<svg xmlns="http://www.w3.org/2000/svg" xmlns:xlink="http://www.w3.org/1999/xlink" width="120"
  zoomAndPan="magnify" viewBox="0 0 90 74.999997" height="100" preserveAspectRatio="xMidYMid meet"
  version="1.0">
  <defs>
    <clipPath id="1b07da918b">
      <path d="M 13 2 L 77 2 L 77 73.5 L 13 73.5 Z M 13 2 " clip-rule="nonzero" />
    </clipPath>
    <clipPath id="6ef5071d66">
      <path d="M 3.972656 5 L 21 5 L 21 22 L 3.972656 22 Z M 3.972656 5 " clip-rule="nonzero" />
    </clipPath>
    <clipPath id="7043370db5">
      <path d="M 66 26 L 85.722656 26 L 85.722656 40 L 66 40 Z M 66 26 " clip-rule="nonzero" />
    </clipPath>
  </defs>
  <g clip-path="url(#1b07da918b)">
    <path fill="#ff6b0c"
      d="M 41.625 2.25 C 41.367188 2.394531 41.175781 2.574219 41.175781 2.652344 C 41.175781 3.003906 40.15625 3.917969 39.46875 4.175781 C 35.957031 5.488281 33.175781 7.8125 31.835938 10.585938 C 30.78125 12.730469 30.734375 13.101562 30.71875 18.402344 L 30.71875 23.164062 L 30.222656 23.46875 C 28.644531 24.429688 28.386719 26.480469 29.519531 28.914062 C 30.351562 30.660156 34.726562 37.550781 36.195312 39.410156 L 37.074219 40.5 L 36.785156 41.414062 C 36.644531 41.910156 36.289062 42.855469 36.035156 43.546875 C 35.558594 44.746094 35.539062 44.777344 34.566406 45.242188 C 33.082031 45.980469 30.832031 46.621094 26.390625 47.601562 C 24.171875 48.097656 21.730469 48.707031 20.980469 48.960938 C 16.84375 50.371094 14.210938 53.527344 13.296875 58.175781 C 12.933594 60.019531 12.914062 64.105469 13.21875 69.519531 L 13.457031 73.480469 L 18.601562 73.480469 L 17.59375 65.738281 C 17.050781 61.492188 16.605469 57.695312 16.589844 57.292969 C 16.589844 56.363281 17.019531 55.5625 17.722656 55.179688 C 18.234375 54.90625 19.414062 54.890625 45.089844 54.890625 C 71.738281 54.890625 71.914062 54.890625 72.441406 55.210938 C 72.757812 55.417969 73.09375 55.820312 73.285156 56.269531 L 73.605469 56.988281 L 72.566406 65.066406 C 71.992188 69.519531 71.515625 73.238281 71.515625 73.316406 C 71.515625 73.414062 72.488281 73.480469 74.035156 73.480469 L 76.574219 73.480469 L 76.671875 67.980469 C 76.78125 62.390625 76.671875 59.730469 76.242188 57.679688 C 75.28125 53.078125 72.808594 50.117188 68.960938 48.898438 C 68.304688 48.6875 65.941406 48.113281 63.722656 47.617188 C 58.933594 46.542969 57.289062 46.078125 55.804688 45.386719 C 54.765625 44.90625 54.652344 44.8125 53.472656 43.128906 L 52.226562 41.367188 L 53.121094 40.390625 C 53.632812 39.859375 54.398438 38.882812 54.859375 38.210938 C 56.167969 36.285156 60.035156 29.894531 60.496094 28.851562 C 61.664062 26.273438 61.472656 24.253906 60.019531 23.644531 C 59.539062 23.433594 59.523438 23.402344 59.617188 22.699219 C 59.84375 21.09375 59.746094 15.117188 59.492188 13.871094 C 58.644531 9.765625 56.792969 7.425781 52.511719 5.089844 C 48.839844 3.070312 42.886719 1.53125 41.625 2.25 Z M 42.292969 17.472656 C 43.125 17.617188 45.214844 18.082031 46.910156 18.515625 C 51.316406 19.652344 52.546875 19.84375 55.195312 19.84375 C 56.441406 19.84375 57.464844 19.863281 57.464844 19.894531 C 57.464844 19.910156 57.207031 21.03125 56.902344 22.363281 C 56.601562 23.691406 56.34375 24.8125 56.34375 24.859375 C 56.34375 24.894531 56.871094 24.925781 57.511719 24.925781 C 58.964844 24.925781 59.441406 25.148438 59.507812 25.855469 C 59.601562 26.863281 58.996094 28.210938 56.777344 31.894531 C 53.679688 37.039062 52.945312 38.128906 51.476562 39.585938 C 50.132812 40.933594 48.9375 41.6875 47.421875 42.136719 C 46.429688 42.425781 44.035156 42.472656 42.933594 42.214844 C 40.9375 41.75 38.71875 40.035156 36.992188 37.648438 C 35.875 36.078125 31.757812 29.539062 31.214844 28.5 C 29.921875 25.917969 30.414062 24.605469 32.683594 24.605469 C 33.226562 24.605469 33.671875 24.558594 33.671875 24.476562 C 33.671875 24.414062 33.527344 23.097656 33.351562 21.5625 C 33.175781 20.023438 33.035156 18.675781 33.035156 18.5625 C 33.035156 18.355469 34.550781 17.8125 36.082031 17.472656 C 37.457031 17.1875 40.441406 17.1875 42.292969 17.472656 Z M 39.773438 42.710938 C 41.335938 43.738281 42.675781 44.074219 45.089844 44.074219 C 47.324219 44.074219 48.027344 43.914062 49.832031 43.015625 C 50.339844 42.761719 50.773438 42.550781 50.820312 42.550781 C 50.851562 42.550781 51.300781 43.144531 51.8125 43.867188 C 52.320312 44.601562 52.976562 45.5 53.265625 45.867188 L 53.808594 46.542969 L 52.960938 47.214844 C 50.644531 49.074219 46.492188 50.082031 43.09375 49.601562 C 40.683594 49.28125 38.574219 48.382812 37.042969 47.054688 L 36.5 46.574219 L 37.136719 45.324219 C 37.488281 44.636719 37.953125 43.59375 38.160156 43 C 38.367188 42.375 38.605469 41.976562 38.703125 42.039062 C 38.78125 42.085938 39.277344 42.390625 39.773438 42.710938 Z M 39.773438 42.710938 "
      fill-opacity="1" fill-rule="nonzero" />
  </g>
  <g clip-path="url(#6ef5071d66)">
    <path fill="#ff6b0c"
      d="M 4.375 5.777344 L 3.972656 6.160156 L 3.972656 17.539062 L 4.355469 17.988281 L 4.742188 18.4375 L 8.859375 18.484375 L 12.964844 18.53125 L 14.703125 20.167969 C 15.660156 21.0625 16.507812 21.816406 16.570312 21.847656 C 16.652344 21.882812 16.828125 21.785156 16.972656 21.640625 C 17.164062 21.433594 17.226562 21.046875 17.226562 19.972656 L 17.226562 18.5625 L 18.375 18.484375 C 19.367188 18.402344 19.574219 18.339844 19.894531 17.972656 L 20.261719 17.539062 L 20.261719 6.160156 L 19.859375 5.777344 L 19.476562 5.375 L 4.757812 5.375 Z M 17.035156 9.671875 C 17.164062 10.488281 17.066406 10.503906 11.972656 10.503906 C 8.492188 10.503906 7.183594 10.457031 7.039062 10.3125 C 6.832031 10.105469 6.785156 9.511719 6.960938 9.335938 C 7.023438 9.269531 9.292969 9.238281 12.019531 9.253906 L 16.988281 9.300781 Z M 16.90625 13.132812 C 17.003906 13.261719 17.066406 13.53125 17.035156 13.742188 L 16.988281 14.109375 L 12.933594 14.15625 C 8.765625 14.191406 8.445312 14.15625 8.445312 13.5625 C 8.445312 12.941406 8.699219 12.90625 12.773438 12.90625 C 16.011719 12.90625 16.746094 12.957031 16.90625 13.132812 Z M 16.90625 13.132812 "
      fill-opacity="1" fill-rule="nonzero" />
  </g>
  <path fill="#ff6b0c"
    d="M 64.410156 6.578125 L 64.007812 6.960938 L 64.007812 12.21875 C 64.027344 16.097656 64.074219 17.539062 64.21875 17.730469 C 64.566406 18.179688 65.09375 18.355469 66.148438 18.355469 L 67.203125 18.355469 L 67.203125 19.941406 C 67.203125 21.128906 67.265625 21.578125 67.441406 21.722656 C 67.570312 21.816406 67.746094 21.882812 67.824219 21.847656 C 67.90625 21.832031 68.800781 21.03125 69.820312 20.070312 L 71.640625 18.355469 L 80.007812 18.355469 L 80.933594 17.425781 L 80.933594 12.347656 C 80.933594 7.042969 80.871094 6.53125 80.214844 6.273438 C 80.074219 6.226562 76.542969 6.175781 72.375 6.175781 L 64.792969 6.175781 Z M 79.625 7.265625 C 79.769531 7.378906 79.816406 8.484375 79.785156 12.28125 L 79.738281 17.152344 L 75.394531 17.234375 L 71.035156 17.3125 L 68.320312 20.039062 L 68.320312 18.820312 C 68.320312 18.097656 68.242188 17.539062 68.128906 17.425781 C 68.015625 17.3125 67.410156 17.234375 66.546875 17.234375 C 65.429688 17.234375 65.144531 17.1875 65.0625 16.976562 C 65.015625 16.832031 64.96875 14.636719 64.96875 12.105469 C 64.96875 7.859375 64.984375 7.460938 65.253906 7.316406 C 65.589844 7.121094 79.320312 7.074219 79.625 7.265625 Z M 79.625 7.265625 "
    fill-opacity="1" fill-rule="nonzero" />
  <path fill="#ff6b0c"
    d="M 67.617188 10.121094 C 67.472656 10.246094 67.363281 10.425781 67.363281 10.488281 C 67.363281 10.9375 67.921875 10.984375 72.726562 10.953125 L 77.660156 10.90625 L 77.710938 10.519531 C 77.742188 10.3125 77.675781 10.070312 77.550781 10.007812 C 77.4375 9.925781 75.203125 9.863281 72.601562 9.863281 C 68.511719 9.863281 67.824219 9.894531 67.617188 10.121094 Z M 67.617188 10.121094 "
    fill-opacity="1" fill-rule="nonzero" />
  <path fill="#ff6b0c"
    d="M 67.617188 13.484375 C 67.316406 13.789062 67.300781 13.902344 67.554688 14.15625 C 67.824219 14.429688 75.679688 14.429688 75.953125 14.15625 C 76.207031 13.902344 76.191406 13.789062 75.886719 13.484375 C 75.679688 13.261719 75.074219 13.226562 71.753906 13.226562 C 68.433594 13.226562 67.824219 13.261719 67.617188 13.484375 Z M 67.617188 13.484375 "
    fill-opacity="1" fill-rule="nonzero" />
  <g clip-path="url(#7043370db5)">
    <path fill="#ff6b0c"
      d="M 67.492188 26.464844 C 66.597656 26.945312 66.5625 27.136719 66.5625 33.019531 C 66.5625 38.929688 66.597656 39.105469 67.523438 39.585938 C 68.207031 39.941406 84.0625 39.957031 84.75 39.585938 C 85.675781 39.121094 85.722656 38.785156 85.722656 33.019531 C 85.722656 27.25 85.675781 26.914062 84.75 26.449219 C 84.078125 26.09375 68.128906 26.109375 67.492188 26.464844 Z M 84.191406 27.585938 C 84.414062 27.792969 84.445312 28.515625 84.445312 33.019531 C 84.445312 37.519531 84.414062 38.242188 84.191406 38.449219 C 83.96875 38.675781 83.027344 38.707031 76.207031 38.707031 C 71.164062 38.707031 68.351562 38.640625 68.144531 38.546875 C 67.859375 38.386719 67.839844 38.144531 67.839844 33.019531 C 67.839844 28.082031 67.859375 27.648438 68.128906 27.503906 C 68.304688 27.394531 71.195312 27.328125 76.175781 27.328125 C 83.027344 27.328125 83.96875 27.359375 84.191406 27.585938 Z M 84.191406 27.585938 "
      fill-opacity="1" fill-rule="nonzero" />
  </g>
  <path fill="#ff6b0c"
    d="M 71.707031 30.214844 C 71.195312 30.695312 71.226562 31.527344 71.769531 31.960938 C 72.007812 32.152344 72.3125 32.296875 72.472656 32.296875 C 73.015625 32.296875 73.589844 31.671875 73.589844 31.078125 C 73.589844 30.039062 72.457031 29.507812 71.707031 30.214844 Z M 71.707031 30.214844 "
    fill-opacity="1" fill-rule="nonzero" />
  <path fill="#ff6b0c"
    d="M 78.585938 32.9375 C 77.996094 33.980469 77.453125 34.84375 77.40625 34.859375 C 77.339844 34.859375 76.957031 34.316406 76.542969 33.660156 C 76.144531 33 75.777344 32.457031 75.761719 32.457031 C 75.746094 32.457031 75.441406 33.179688 75.105469 34.058594 L 74.515625 35.660156 L 72.949219 35.660156 L 72.773438 34.941406 C 72.679688 34.539062 72.550781 34.21875 72.488281 34.21875 C 72.441406 34.21875 72.183594 34.730469 71.945312 35.339844 L 71.480469 36.464844 L 70.460938 36.464844 C 69.46875 36.464844 69.4375 36.480469 69.4375 36.863281 L 69.4375 37.265625 L 82.851562 37.265625 L 82.851562 34.859375 L 81.382812 32.9375 C 80.566406 31.894531 79.847656 31.03125 79.785156 31.015625 C 79.71875 31.015625 79.195312 31.878906 78.585938 32.9375 Z M 78.585938 32.9375 "
    fill-opacity="1" fill-rule="nonzero" />
  <path fill="#ff6b0c"
    d="M 6.113281 27.714844 L 5.570312 28.257812 L 5.570312 33.835938 C 5.570312 39.089844 5.585938 39.460938 5.890625 39.941406 C 6.082031 40.277344 6.402344 40.515625 6.800781 40.628906 C 7.214844 40.757812 9.867188 40.789062 15.34375 40.757812 L 23.292969 40.710938 L 23.804688 40.179688 L 24.332031 39.667969 L 24.378906 34.332031 C 24.445312 28.417969 24.378906 27.984375 23.566406 27.488281 C 23.070312 27.183594 22.703125 27.167969 14.863281 27.167969 L 6.65625 27.167969 Z M 23.132812 34.667969 C 23.132812 37.921875 23.085938 39.171875 22.941406 39.316406 C 22.800781 39.460938 20.789062 39.507812 14.878906 39.507812 L 7.007812 39.507812 L 6.847656 39.089844 C 6.671875 38.640625 6.625 30.484375 6.800781 30.324219 C 6.847656 30.261719 10.550781 30.214844 15.023438 30.214844 L 23.132812 30.214844 Z M 23.132812 34.667969 "
    fill-opacity="1" fill-rule="nonzero" />
  <path fill="#ff6b0c"
    d="M 12.980469 32.503906 C 12.949219 32.617188 12.933594 33.785156 12.949219 35.101562 C 12.996094 37.457031 12.996094 37.503906 13.347656 37.503906 C 13.792969 37.503906 17.066406 35.246094 17.066406 34.941406 C 17.066406 34.683594 13.699219 32.296875 13.332031 32.296875 C 13.1875 32.296875 13.027344 32.394531 12.980469 32.503906 Z M 12.980469 32.503906 "
    fill-opacity="1" fill-rule="nonzero" />
  <path fill="#ff6b0c"
    d="M 43.730469 65.195312 C 43.429688 65.289062 42.886719 65.675781 42.519531 66.027344 C 41.226562 67.324219 41.242188 69.214844 42.519531 70.515625 C 43.125 71.121094 44.082031 71.554688 44.785156 71.554688 C 45.441406 71.554688 46.316406 71.1875 46.878906 70.707031 C 48.394531 69.359375 48.394531 67.179688 46.878906 65.835938 C 45.984375 65.050781 44.898438 64.824219 43.730469 65.195312 Z M 43.730469 65.195312 "
    fill-opacity="1" fill-rule="nonzero" />
</svg>