<svg xmlns="http://www.w3.org/2000/svg" xmlns:xlink="http://www.w3.org/1999/xlink" width="100"
  zoomAndPan="magnify" viewBox="0 0 75 74.999997" height="100" preserveAspectRatio="xMidYMid meet"
  version="1.0">
  <defs>
    <clipPath id="281966d95f">
      <path d="M 2.742188 1.5 L 72 1.5 L 72 73.5 L 2.742188 73.5 Z M 2.742188 1.5 "
        clip-rule="nonzero" />
    </clipPath>
  </defs>
  <g clip-path="url(#281966d95f)">
    <path fill="#ff6b0c"
      d="M 2.9375 2.742188 L 2.9375 72.257812 C 2.9375 72.421875 2.96875 72.582031 3.03125 72.734375 C 3.09375 72.886719 3.183594 73.019531 3.300781 73.136719 C 3.417969 73.253906 3.550781 73.34375 3.707031 73.40625 C 3.859375 73.46875 4.015625 73.5 4.183594 73.5 L 58.996094 73.5 C 59.160156 73.5 59.320312 73.46875 59.472656 73.40625 C 59.625 73.34375 59.761719 73.253906 59.878906 73.136719 C 59.992188 73.019531 60.082031 72.886719 60.148438 72.734375 C 60.210938 72.582031 60.242188 72.421875 60.242188 72.257812 L 60.242188 51.476562 L 69.386719 37.5 L 70.832031 35.304688 C 71.015625 35.023438 71.167969 34.726562 71.292969 34.417969 C 71.417969 34.105469 71.511719 33.789062 71.574219 33.457031 C 71.636719 33.128906 71.664062 32.796875 71.660156 32.464844 C 71.65625 32.128906 71.621094 31.800781 71.550781 31.472656 C 71.484375 31.144531 71.382812 30.828125 71.25 30.519531 C 71.121094 30.210938 70.960938 29.921875 70.769531 29.644531 C 70.582031 29.367188 70.367188 29.113281 70.128906 28.878906 C 69.890625 28.644531 69.628906 28.433594 69.347656 28.25 L 69.074219 28.078125 C 68.792969 27.894531 68.496094 27.742188 68.1875 27.617188 C 67.875 27.492188 67.554688 27.398438 67.222656 27.335938 C 66.894531 27.273438 66.5625 27.242188 66.226562 27.246094 C 65.890625 27.25 65.558594 27.285156 65.230469 27.355469 C 64.902344 27.421875 64.582031 27.523438 64.273438 27.652344 C 63.964844 27.785156 63.671875 27.945312 63.394531 28.132812 C 63.117188 28.324219 62.859375 28.535156 62.625 28.777344 C 62.390625 29.015625 62.183594 29.273438 62 29.554688 L 60.863281 31.292969 L 60.21875 32.285156 L 60.21875 11.703125 C 60.210938 11.375 60.097656 11.09375 59.867188 10.859375 L 50.859375 1.859375 C 50.628906 1.621094 50.347656 1.5 50.015625 1.5 L 4.144531 1.5 C 3.984375 1.503906 3.828125 1.539062 3.679688 1.605469 C 3.53125 1.671875 3.402344 1.761719 3.289062 1.875 C 3.175781 1.992188 3.089844 2.125 3.027344 2.273438 C 2.964844 2.425781 2.9375 2.578125 2.9375 2.742188 Z M 54.011719 56.605469 L 49.214844 53.476562 L 62.222656 33.601562 L 67.019531 36.730469 Z M 48.519531 55.886719 L 51.96875 58.132812 L 48.121094 60.242188 Z M 67.765625 30.050781 L 68.039062 30.226562 C 68.339844 30.417969 68.59375 30.664062 68.796875 30.957031 C 69 31.253906 69.136719 31.574219 69.210938 31.925781 C 69.285156 32.273438 69.289062 32.625 69.222656 32.976562 C 69.152344 33.328125 69.023438 33.652344 68.824219 33.949219 L 68.328125 34.707031 L 63.53125 31.589844 L 64.027344 30.820312 C 64.226562 30.523438 64.472656 30.273438 64.769531 30.074219 C 65.066406 29.875 65.386719 29.738281 65.738281 29.667969 C 66.089844 29.59375 66.4375 29.59375 66.789062 29.660156 C 67.140625 29.726562 67.46875 29.855469 67.765625 30.050781 Z M 56.554688 10.945312 L 50.800781 10.945312 L 50.800781 5.222656 Z M 5.351562 3.894531 L 48.382812 3.894531 L 48.382812 12.164062 C 48.382812 12.328125 48.414062 12.488281 48.476562 12.636719 C 48.539062 12.789062 48.628906 12.925781 48.746094 13.042969 C 48.863281 13.15625 49 13.246094 49.152344 13.308594 C 49.304688 13.375 49.460938 13.40625 49.628906 13.40625 L 57.835938 13.40625 L 57.835938 35.949219 L 46.527344 53.128906 C 46.488281 53.195312 46.460938 53.265625 46.4375 53.339844 C 46.40625 53.417969 46.382812 53.496094 46.363281 53.574219 L 45.566406 62.328125 C 45.53125 62.800781 45.707031 63.175781 46.101562 63.445312 C 46.519531 63.683594 46.933594 63.683594 47.347656 63.445312 L 54.910156 59.296875 C 55.035156 59.234375 55.136719 59.148438 55.222656 59.039062 L 55.285156 58.964844 L 57.773438 55.238281 L 57.773438 71.105469 L 5.351562 71.105469 Z M 5.351562 3.894531 "
      fill-opacity="1" fill-rule="nonzero" />
  </g>
  <path fill="#ff6b0c"
    d="M 13.125 19.351562 L 50.5 19.476562 C 50.6875 19.523438 50.871094 19.523438 51.0625 19.484375 C 51.25 19.445312 51.417969 19.367188 51.570312 19.25 C 51.71875 19.132812 51.839844 18.988281 51.921875 18.816406 C 52.007812 18.644531 52.046875 18.460938 52.046875 18.269531 C 52.046875 18.078125 52.007812 17.898438 51.921875 17.726562 C 51.839844 17.554688 51.71875 17.410156 51.570312 17.292969 C 51.417969 17.175781 51.25 17.097656 51.0625 17.054688 C 50.871094 17.015625 50.6875 17.019531 50.5 17.066406 L 13.125 16.957031 C 12.941406 16.90625 12.75 16.898438 12.558594 16.933594 C 12.371094 16.972656 12.199219 17.050781 12.042969 17.167969 C 11.890625 17.285156 11.769531 17.429688 11.683594 17.601562 C 11.597656 17.777344 11.554688 17.960938 11.554688 18.152344 C 11.554688 18.347656 11.597656 18.53125 11.683594 18.703125 C 11.769531 18.875 11.890625 19.023438 12.042969 19.140625 C 12.199219 19.257812 12.371094 19.335938 12.558594 19.371094 C 12.75 19.410156 12.941406 19.402344 13.125 19.351562 Z M 13.125 19.351562 "
    fill-opacity="1" fill-rule="nonzero" />
  <path fill="#ff6b0c"
    d="M 13.125 30.734375 L 50.5 30.859375 C 50.664062 30.859375 50.824219 30.828125 50.976562 30.765625 C 51.128906 30.699219 51.265625 30.613281 51.378906 30.496094 C 51.496094 30.378906 51.585938 30.246094 51.652344 30.09375 C 51.714844 29.941406 51.746094 29.78125 51.746094 29.617188 C 51.746094 29.453125 51.714844 29.292969 51.652344 29.140625 C 51.585938 28.988281 51.496094 28.855469 51.378906 28.738281 C 51.265625 28.621094 51.128906 28.535156 50.976562 28.46875 C 50.824219 28.40625 50.664062 28.375 50.5 28.375 L 13.125 28.25 C 12.941406 28.199219 12.75 28.195312 12.558594 28.230469 C 12.371094 28.269531 12.199219 28.347656 12.042969 28.464844 C 11.890625 28.582031 11.769531 28.726562 11.683594 28.898438 C 11.597656 29.074219 11.554688 29.257812 11.554688 29.449219 C 11.554688 29.644531 11.597656 29.828125 11.683594 30 C 11.769531 30.171875 11.890625 30.320312 12.042969 30.4375 C 12.199219 30.554688 12.371094 30.628906 12.558594 30.667969 C 12.75 30.703125 12.941406 30.699219 13.125 30.648438 Z M 13.125 30.734375 "
    fill-opacity="1" fill-rule="nonzero" />
  <path fill="#ff6b0c"
    d="M 42.800781 39.847656 L 13.125 39.722656 C 12.941406 39.675781 12.753906 39.671875 12.566406 39.710938 C 12.378906 39.75 12.207031 39.828125 12.058594 39.949219 C 11.90625 40.066406 11.789062 40.210938 11.703125 40.382812 C 11.621094 40.554688 11.578125 40.734375 11.578125 40.925781 C 11.578125 41.117188 11.621094 41.300781 11.703125 41.472656 C 11.789062 41.640625 11.90625 41.789062 12.058594 41.90625 C 12.207031 42.023438 12.378906 42.101562 12.566406 42.140625 C 12.753906 42.179688 12.941406 42.175781 13.125 42.128906 L 42.800781 42.242188 C 42.988281 42.292969 43.175781 42.300781 43.367188 42.261719 C 43.558594 42.226562 43.730469 42.148438 43.882812 42.03125 C 44.039062 41.914062 44.160156 41.765625 44.246094 41.59375 C 44.332031 41.421875 44.375 41.238281 44.375 41.042969 C 44.375 40.851562 44.332031 40.667969 44.246094 40.492188 C 44.160156 40.320312 44.039062 40.175781 43.882812 40.058594 C 43.730469 39.941406 43.558594 39.863281 43.367188 39.824219 C 43.175781 39.789062 42.988281 39.796875 42.800781 39.847656 Z M 42.800781 39.847656 "
    fill-opacity="1" fill-rule="nonzero" />
  <path fill="#ff6b0c"
    d="M 38.828125 57.363281 L 13.636719 57.199219 C 13.367188 57.273438 13.144531 57.421875 12.972656 57.644531 C 12.804688 57.867188 12.71875 58.117188 12.71875 58.398438 C 12.71875 58.679688 12.804688 58.929688 12.972656 59.152344 C 13.144531 59.375 13.367188 59.523438 13.636719 59.597656 L 38.851562 59.71875 C 39.039062 59.765625 39.226562 59.769531 39.414062 59.730469 C 39.601562 59.691406 39.769531 59.613281 39.921875 59.496094 C 40.074219 59.378906 40.191406 59.234375 40.273438 59.0625 C 40.359375 58.890625 40.402344 58.707031 40.402344 58.515625 C 40.402344 58.324219 40.359375 58.144531 40.273438 57.972656 C 40.191406 57.800781 40.074219 57.65625 39.921875 57.539062 C 39.769531 57.421875 39.601562 57.339844 39.414062 57.300781 C 39.226562 57.261719 39.039062 57.265625 38.851562 57.3125 Z M 38.828125 57.363281 "
    fill-opacity="1" fill-rule="nonzero" />
</svg>