<svg xmlns="http://www.w3.org/2000/svg" xmlns:xlink="http://www.w3.org/1999/xlink" width="100"
  zoomAndPan="magnify" viewBox="0 0 75 74.999997" height="100" preserveAspectRatio="xMidYMid meet"
  version="1.0">
  <defs>
    <clipPath id="a26543da45">
      <path d="M 1.5 2 L 32 2 L 32 73 L 1.5 73 Z M 1.5 2 " clip-rule="nonzero" />
    </clipPath>
    <clipPath id="4b61994d33">
      <path d="M 34 1.5 L 73.5 1.5 L 73.5 73.5 L 34 73.5 Z M 34 1.5 " clip-rule="nonzero" />
    </clipPath>
  </defs>
  <path fill="#ff6b0c"
    d="M 37.332031 14.726562 C 38.71875 14.726562 39.84375 15.851562 39.84375 17.238281 L 39.84375 57.425781 C 39.84375 58.8125 38.71875 59.9375 37.332031 59.9375 C 35.945312 59.9375 34.820312 58.8125 34.820312 57.425781 L 34.820312 17.238281 C 34.820312 15.851562 35.945312 14.726562 37.332031 14.726562 Z M 37.332031 14.726562 "
    fill-opacity="1" fill-rule="evenodd" />
  <path fill="#ff6b0c"
    d="M 14.726562 37.332031 C 14.726562 35.945312 15.851562 34.820312 17.238281 34.820312 L 57.425781 34.820312 C 58.8125 34.820312 59.9375 35.945312 59.9375 37.332031 C 59.9375 38.71875 58.8125 39.84375 57.425781 39.84375 L 17.238281 39.84375 C 15.851562 39.84375 14.726562 38.71875 14.726562 37.332031 Z M 14.726562 37.332031 "
    fill-opacity="1" fill-rule="evenodd" />
  <g clip-path="url(#a26543da45)">
    <path fill="#ff6b0c"
      d="M 31.394531 4.273438 C 31.738281 5.617188 30.929688 6.984375 29.585938 7.332031 C 27.925781 7.757812 26.316406 8.320312 24.773438 9.007812 C 23.507812 9.570312 22.023438 8.996094 21.457031 7.730469 C 20.894531 6.460938 21.46875 4.976562 22.734375 4.414062 C 24.527344 3.617188 26.398438 2.964844 28.335938 2.464844 C 29.679688 2.121094 31.046875 2.929688 31.394531 4.273438 Z M 16.421875 11.050781 C 17.367188 12.070312 17.304688 13.660156 16.289062 14.601562 C 13.796875 16.910156 11.683594 19.625 10.058594 22.636719 C 9.398438 23.855469 7.875 24.308594 6.652344 23.652344 C 5.433594 22.992188 4.976562 21.46875 5.636719 20.246094 C 7.527344 16.746094 9.980469 13.597656 12.875 10.917969 C 13.890625 9.972656 15.480469 10.035156 16.421875 11.050781 Z M 4.703125 29.359375 C 6.070312 29.585938 6.996094 30.878906 6.769531 32.246094 C 6.496094 33.898438 6.355469 35.597656 6.355469 37.332031 C 6.355469 39.066406 6.496094 40.765625 6.769531 42.417969 C 6.996094 43.785156 6.070312 45.078125 4.703125 45.304688 C 3.332031 45.53125 2.039062 44.605469 1.816406 43.234375 C 1.496094 41.3125 1.332031 39.339844 1.332031 37.332031 C 1.332031 35.324219 1.496094 33.351562 1.816406 31.429688 C 2.039062 30.058594 3.332031 29.132812 4.703125 29.359375 Z M 6.652344 51.011719 C 7.875 50.355469 9.398438 50.808594 10.058594 52.03125 C 11.683594 55.042969 13.796875 57.753906 16.289062 60.0625 C 17.304688 61.003906 17.367188 62.59375 16.421875 63.613281 C 15.480469 64.628906 13.890625 64.691406 12.875 63.75 C 9.980469 61.066406 7.527344 57.917969 5.636719 54.417969 C 4.976562 53.195312 5.433594 51.671875 6.652344 51.011719 Z M 21.457031 66.933594 C 22.023438 65.667969 23.507812 65.09375 24.773438 65.65625 C 26.316406 66.34375 27.925781 66.90625 29.585938 67.332031 C 30.929688 67.679688 31.738281 69.046875 31.394531 70.390625 C 31.046875 71.734375 29.679688 72.542969 28.335938 72.199219 C 26.398438 71.699219 24.527344 71.046875 22.734375 70.25 C 21.46875 69.6875 20.894531 68.203125 21.457031 66.933594 Z M 21.457031 66.933594 "
      fill-opacity="1" fill-rule="evenodd" />
  </g>
  <g clip-path="url(#4b61994d33)">
    <path fill="#ff6b0c"
      d="M 34.820312 3.84375 C 34.820312 2.457031 35.945312 1.332031 37.332031 1.332031 C 57.214844 1.332031 73.332031 17.449219 73.332031 37.332031 C 73.332031 38.71875 72.207031 39.84375 70.820312 39.84375 C 69.433594 39.84375 68.308594 38.71875 68.308594 37.332031 C 68.308594 20.222656 54.441406 6.355469 37.332031 6.355469 C 35.945312 6.355469 34.820312 5.230469 34.820312 3.84375 Z M 69.039062 48.425781 C 70.3125 48.980469 70.890625 50.460938 70.335938 51.734375 C 64.78125 64.441406 52.097656 73.332031 37.332031 73.332031 C 35.945312 73.332031 34.820312 72.207031 34.820312 70.820312 C 34.820312 69.433594 35.945312 68.308594 37.332031 68.308594 C 50.03125 68.308594 60.949219 60.667969 65.734375 49.722656 C 66.289062 48.453125 67.769531 47.871094 69.039062 48.425781 Z M 69.039062 48.425781 "
      fill-opacity="1" fill-rule="evenodd" />
  </g>
</svg>