<svg xmlns="http://www.w3.org/2000/svg" xmlns:xlink="http://www.w3.org/1999/xlink" width="100"
  zoomAndPan="magnify" viewBox="0 0 75 74.999997" height="100" preserveAspectRatio="xMidYMid meet"
  version="1.0">
  <defs>
    <clipPath id="6f4d59f3cc">
      <path d="M 7.035156 1.5 L 67.785156 1.5 L 67.785156 73.5 L 7.035156 73.5 Z M 7.035156 1.5 "
        clip-rule="nonzero" />
    </clipPath>
    <clipPath id="aa85b471bf">
      <path d="M 55 1.5 L 67.785156 1.5 L 67.785156 15 L 55 15 Z M 55 1.5 " clip-rule="nonzero" />
    </clipPath>
  </defs>
  <g clip-path="url(#6f4d59f3cc)">
    <path fill="#ff6b0c"
      d="M 66.699219 73.5 L 8.054688 73.5 C 7.511719 73.5 7.070312 73.058594 7.070312 72.511719 L 7.070312 2.566406 C 7.070312 2.023438 7.511719 1.578125 8.054688 1.578125 L 56.050781 1.578125 C 56.59375 1.578125 57.035156 2.023438 57.035156 2.566406 C 57.035156 3.113281 56.59375 3.554688 56.050781 3.554688 L 9.039062 3.554688 L 9.039062 71.527344 L 65.714844 71.527344 L 65.703125 13.757812 C 65.703125 13.214844 66.144531 12.769531 66.6875 12.769531 C 67.230469 12.769531 67.671875 13.214844 67.671875 13.757812 L 67.683594 72.511719 C 67.683594 72.773438 67.578125 73.027344 67.394531 73.210938 C 67.210938 73.394531 66.957031 73.5 66.699219 73.5 "
      fill-opacity="1" fill-rule="nonzero" />
  </g>
  <g clip-path="url(#aa85b471bf)">
    <path fill="#ff6b0c"
      d="M 57.035156 12.769531 L 64.390625 12.769531 L 57.035156 5.03125 Z M 66.6875 14.746094 L 56.050781 14.746094 C 55.507812 14.746094 55.066406 14.304688 55.066406 13.757812 L 55.066406 2.566406 C 55.066406 2.164062 55.3125 1.800781 55.683594 1.652344 C 56.058594 1.5 56.484375 1.59375 56.761719 1.886719 L 67.402344 13.078125 C 67.671875 13.363281 67.75 13.785156 67.59375 14.148438 C 67.4375 14.511719 67.082031 14.746094 66.6875 14.746094 "
      fill-opacity="1" fill-rule="nonzero" />
  </g>
  <path fill="#ff6b0c"
    d="M 17.839844 64.214844 L 21.3125 64.214844 L 21.3125 57.199219 L 17.839844 57.199219 Z M 22.296875 66.191406 L 16.855469 66.191406 C 16.3125 66.191406 15.871094 65.75 15.871094 65.203125 L 15.871094 56.214844 C 15.871094 55.667969 16.3125 55.226562 16.855469 55.226562 L 22.296875 55.226562 C 22.839844 55.226562 23.28125 55.667969 23.28125 56.214844 L 23.28125 65.203125 C 23.28125 65.75 22.839844 66.191406 22.296875 66.191406 "
    fill-opacity="1" fill-rule="nonzero" />
  <path fill="#ff6b0c"
    d="M 29.707031 64.214844 L 33.179688 64.214844 L 33.179688 51.613281 L 29.707031 51.613281 Z M 34.164062 66.191406 L 28.722656 66.191406 C 28.179688 66.191406 27.738281 65.75 27.738281 65.203125 L 27.738281 50.628906 C 27.738281 50.082031 28.179688 49.640625 28.722656 49.640625 L 34.164062 49.640625 C 34.707031 49.640625 35.148438 50.082031 35.148438 50.628906 L 35.148438 65.203125 C 35.148438 65.75 34.707031 66.191406 34.164062 66.191406 "
    fill-opacity="1" fill-rule="nonzero" />
  <path fill="#ff6b0c"
    d="M 41.574219 64.214844 L 45.046875 64.214844 L 45.046875 42.617188 L 41.574219 42.617188 Z M 46.03125 66.191406 L 40.589844 66.191406 C 40.046875 66.191406 39.605469 65.75 39.605469 65.203125 L 39.605469 41.628906 C 39.605469 41.082031 40.046875 40.640625 40.589844 40.640625 L 46.03125 40.640625 C 46.574219 40.640625 47.015625 41.082031 47.015625 41.628906 L 47.015625 65.203125 C 47.015625 65.75 46.574219 66.191406 46.03125 66.191406 "
    fill-opacity="1" fill-rule="nonzero" />
  <path fill="#ff6b0c"
    d="M 53.441406 64.214844 L 56.910156 64.214844 L 56.910156 49.734375 L 53.441406 49.734375 Z M 57.894531 66.191406 L 52.457031 66.191406 C 51.910156 66.191406 51.472656 65.75 51.472656 65.203125 L 51.472656 48.746094 C 51.472656 48.199219 51.910156 47.757812 52.457031 47.757812 L 57.894531 47.757812 C 58.441406 47.757812 58.878906 48.199219 58.878906 48.746094 L 58.878906 65.203125 C 58.878906 65.75 58.441406 66.191406 57.894531 66.191406 "
    fill-opacity="1" fill-rule="nonzero" />
  <path fill="#ff6b0c"
    d="M 56.75 41.234375 C 56.285156 41.234375 55.871094 40.902344 55.785156 40.429688 C 55.683594 39.894531 56.035156 39.378906 56.570312 39.277344 C 57.03125 39.191406 57.425781 39.011719 57.746094 38.742188 C 58.160156 38.390625 58.78125 38.445312 59.132812 38.863281 C 59.480469 39.277344 59.425781 39.902344 59.011719 40.253906 C 58.429688 40.742188 57.730469 41.070312 56.933594 41.21875 C 56.871094 41.230469 56.8125 41.234375 56.75 41.234375 "
    fill-opacity="1" fill-rule="nonzero" />
  <path fill="#ff6b0c"
    d="M 53.65625 40.796875 C 53.519531 40.796875 53.378906 40.765625 53.246094 40.707031 C 51.738281 40.011719 50.554688 38.894531 49.40625 37.8125 L 49.199219 37.613281 C 48.050781 36.535156 46.910156 35.53125 45.558594 35.09375 C 45.296875 35.011719 45.023438 34.945312 44.738281 34.902344 C 44.203125 34.824219 43.832031 34.324219 43.910156 33.78125 C 43.988281 33.242188 44.492188 32.871094 45.027344 32.949219 C 45.417969 33.007812 45.796875 33.097656 46.160156 33.214844 C 47.902344 33.777344 49.28125 34.988281 50.542969 36.175781 L 50.753906 36.375 C 51.832031 37.390625 52.851562 38.351562 54.070312 38.910156 C 54.5625 39.136719 54.78125 39.722656 54.554688 40.21875 C 54.386719 40.582031 54.03125 40.796875 53.65625 40.796875 "
    fill-opacity="1" fill-rule="nonzero" />
  <path fill="#ff6b0c"
    d="M 32.625 42.292969 C 32.347656 42.292969 32.070312 42.175781 31.875 41.949219 C 31.523438 41.535156 31.570312 40.910156 31.984375 40.554688 C 32.792969 39.863281 33.546875 39.101562 34.347656 38.296875 C 36.007812 36.625 37.722656 34.898438 39.945312 33.824219 C 40.445312 33.582031 40.964844 33.382812 41.492188 33.230469 C 42.011719 33.078125 42.558594 33.378906 42.710938 33.902344 C 42.863281 34.425781 42.5625 34.972656 42.039062 35.125 C 41.617188 35.25 41.199219 35.410156 40.796875 35.605469 C 38.878906 36.53125 37.355469 38.066406 35.742188 39.691406 C 34.949219 40.488281 34.132812 41.3125 33.265625 42.054688 C 33.078125 42.214844 32.851562 42.292969 32.625 42.292969 "
    fill-opacity="1" fill-rule="nonzero" />
  <path fill="#ff6b0c"
    d="M 21.144531 48.671875 C 20.683594 48.671875 20.269531 48.34375 20.179688 47.871094 C 20.074219 47.335938 20.425781 46.820312 20.957031 46.714844 C 21.117188 46.683594 21.285156 46.644531 21.449219 46.601562 C 24.042969 45.925781 26.621094 44.605469 29.5625 42.449219 C 30.003906 42.128906 30.617188 42.222656 30.9375 42.664062 C 31.257812 43.105469 31.164062 43.722656 30.722656 44.042969 C 27.574219 46.347656 24.785156 47.769531 21.945312 48.511719 C 21.742188 48.566406 21.535156 48.613281 21.332031 48.652344 C 21.269531 48.664062 21.207031 48.671875 21.144531 48.671875 "
    fill-opacity="1" fill-rule="nonzero" />
  <path fill="#ff6b0c"
    d="M 18.003906 48.597656 C 17.910156 48.597656 17.816406 48.585938 17.722656 48.558594 C 16.976562 48.335938 16.308594 47.976562 15.734375 47.488281 C 15.324219 47.136719 15.273438 46.511719 15.625 46.097656 C 15.976562 45.683594 16.597656 45.632812 17.011719 45.984375 C 17.371094 46.292969 17.800781 46.523438 18.28125 46.664062 C 18.804688 46.820312 19.101562 47.367188 18.945312 47.890625 C 18.820312 48.320312 18.429688 48.597656 18.003906 48.597656 "
    fill-opacity="1" fill-rule="nonzero" />
  <path fill="#ff6b0c"
    d="M 19.578125 46.941406 C 19.25 46.941406 18.984375 47.207031 18.984375 47.535156 C 18.984375 47.863281 19.25 48.128906 19.578125 48.128906 C 19.902344 48.128906 20.167969 47.863281 20.167969 47.535156 C 20.167969 47.207031 19.902344 46.941406 19.578125 46.941406 Z M 19.578125 50.101562 C 18.164062 50.101562 17.015625 48.949219 17.015625 47.535156 C 17.015625 46.121094 18.164062 44.96875 19.578125 44.96875 C 20.988281 44.96875 22.136719 46.121094 22.136719 47.535156 C 22.136719 48.949219 20.988281 50.101562 19.578125 50.101562 "
    fill-opacity="1" fill-rule="nonzero" />
  <path fill="#ff6b0c"
    d="M 31.441406 41.757812 C 31.117188 41.757812 30.851562 42.023438 30.851562 42.351562 C 30.851562 42.679688 31.117188 42.945312 31.441406 42.945312 C 31.769531 42.945312 32.035156 42.679688 32.035156 42.351562 C 32.035156 42.023438 31.769531 41.757812 31.441406 41.757812 Z M 31.441406 44.917969 C 30.03125 44.917969 28.882812 43.769531 28.882812 42.351562 C 28.882812 40.9375 30.03125 39.785156 31.441406 39.785156 C 32.855469 39.785156 34.003906 40.9375 34.003906 42.351562 C 34.003906 43.769531 32.855469 44.917969 31.441406 44.917969 "
    fill-opacity="1" fill-rule="nonzero" />
  <path fill="#ff6b0c"
    d="M 43.308594 33.265625 C 42.984375 33.265625 42.71875 33.53125 42.71875 33.859375 C 42.71875 34.1875 42.984375 34.453125 43.308594 34.453125 C 43.636719 34.453125 43.902344 34.1875 43.902344 33.859375 C 43.902344 33.53125 43.636719 33.265625 43.308594 33.265625 Z M 43.308594 36.425781 C 41.898438 36.425781 40.75 35.273438 40.75 33.859375 C 40.75 32.441406 41.898438 31.292969 43.308594 31.292969 C 44.722656 31.292969 45.871094 32.441406 45.871094 33.859375 C 45.871094 35.273438 44.722656 36.425781 43.308594 36.425781 "
    fill-opacity="1" fill-rule="nonzero" />
  <path fill="#ff6b0c"
    d="M 55.175781 39.640625 C 54.851562 39.640625 54.585938 39.90625 54.585938 40.234375 C 54.585938 40.5625 54.851562 40.828125 55.175781 40.828125 C 55.503906 40.828125 55.765625 40.5625 55.765625 40.234375 C 55.765625 39.90625 55.503906 39.640625 55.175781 39.640625 Z M 55.175781 42.800781 C 53.765625 42.800781 52.617188 41.648438 52.617188 40.234375 C 52.617188 38.820312 53.765625 37.667969 55.175781 37.667969 C 56.585938 37.667969 57.734375 38.820312 57.734375 40.234375 C 57.734375 41.648438 56.585938 42.800781 55.175781 42.800781 "
    fill-opacity="1" fill-rule="nonzero" />
  <path fill="#ff6b0c"
    d="M 27.230469 19.847656 C 26.824219 19.246094 26.191406 18.742188 25.34375 18.351562 C 24.769531 18.089844 23.699219 17.777344 22.15625 17.429688 L 22.070312 17.410156 C 20.601562 17.070312 19.679688 16.738281 19.332031 16.421875 C 18.976562 16.105469 18.800781 15.695312 18.800781 15.207031 C 18.800781 14.636719 19.054688 14.144531 19.558594 13.738281 C 20.066406 13.332031 20.894531 13.125 22.019531 13.125 L 22.050781 13.125 C 23.113281 13.128906 23.925781 13.359375 24.46875 13.804688 C 24.855469 14.121094 25.132812 14.554688 25.292969 15.09375 C 25.425781 15.527344 25.8125 15.824219 26.257812 15.824219 C 26.285156 15.824219 26.3125 15.820312 26.335938 15.820312 C 26.640625 15.796875 26.914062 15.640625 27.089844 15.386719 C 27.265625 15.136719 27.316406 14.820312 27.230469 14.527344 C 27.109375 14.113281 26.929688 13.71875 26.691406 13.359375 C 26.25 12.679688 25.605469 12.160156 24.785156 11.8125 C 23.996094 11.480469 23.078125 11.304688 22.0625 11.292969 L 22.050781 11.292969 C 22.019531 11.292969 21.984375 11.292969 21.941406 11.292969 C 20.96875 11.292969 20.074219 11.457031 19.28125 11.789062 C 18.480469 12.121094 17.863281 12.613281 17.445312 13.253906 C 17.027344 13.898438 16.816406 14.59375 16.816406 15.332031 C 16.816406 16.003906 16.988281 16.621094 17.332031 17.164062 C 17.671875 17.707031 18.199219 18.167969 18.890625 18.53125 C 19.421875 18.8125 20.359375 19.117188 21.679688 19.4375 C 21.820312 19.46875 21.933594 19.496094 22.035156 19.523438 C 23.136719 19.792969 23.871094 20 24.222656 20.136719 C 24.804688 20.355469 25.226562 20.632812 25.480469 20.957031 C 25.726562 21.28125 25.855469 21.660156 25.855469 22.09375 C 25.855469 22.519531 25.722656 22.917969 25.464844 23.277344 C 25.203125 23.640625 24.796875 23.929688 24.261719 24.136719 C 23.71875 24.347656 23.085938 24.457031 22.371094 24.457031 C 22.261719 24.457031 22.15625 24.453125 22.058594 24.449219 C 21.378906 24.417969 20.757812 24.277344 20.203125 24.039062 C 19.566406 23.761719 19.09375 23.394531 18.792969 22.945312 C 18.605469 22.664062 18.457031 22.328125 18.351562 21.949219 C 18.234375 21.515625 17.839844 21.210938 17.386719 21.210938 C 17.355469 21.210938 17.328125 21.210938 17.296875 21.214844 C 17.003906 21.242188 16.738281 21.390625 16.566406 21.628906 C 16.394531 21.863281 16.335938 22.160156 16.402344 22.441406 C 16.53125 22.996094 16.753906 23.523438 17.070312 24.003906 C 17.574219 24.777344 18.28125 25.363281 19.167969 25.746094 C 19.957031 26.085938 20.929688 26.277344 22.050781 26.316406 C 22.1875 26.320312 22.324219 26.320312 22.460938 26.320312 C 23.492188 26.320312 24.429688 26.128906 25.253906 25.75 C 26.085938 25.371094 26.730469 24.828125 27.171875 24.140625 C 27.617188 23.457031 27.839844 22.714844 27.839844 21.9375 C 27.839844 21.152344 27.632812 20.449219 27.230469 19.847656 "
    fill-opacity="1" fill-rule="nonzero" />
  <path fill="#ff6b0c"
    d="M 22.105469 12.347656 C 21.5625 12.347656 21.121094 11.90625 21.121094 11.359375 L 21.121094 9.875 C 21.121094 9.332031 21.5625 8.890625 22.105469 8.890625 C 22.648438 8.890625 23.089844 9.332031 23.089844 9.875 L 23.089844 11.359375 C 23.089844 11.90625 22.648438 12.347656 22.105469 12.347656 "
    fill-opacity="1" fill-rule="nonzero" />
  <path fill="#ff6b0c"
    d="M 22.105469 28.722656 C 21.5625 28.722656 21.121094 28.28125 21.121094 27.734375 L 21.121094 26.25 C 21.121094 25.707031 21.5625 25.265625 22.105469 25.265625 C 22.648438 25.265625 23.089844 25.707031 23.089844 26.25 L 23.089844 27.734375 C 23.089844 28.28125 22.648438 28.722656 22.105469 28.722656 "
    fill-opacity="1" fill-rule="nonzero" />
  <path fill="#ff6b0c"
    d="M 50.285156 13.503906 L 32.9375 13.503906 C 32.394531 13.503906 31.953125 13.058594 31.953125 12.515625 C 31.953125 11.96875 32.394531 11.527344 32.9375 11.527344 L 50.285156 11.527344 C 50.828125 11.527344 51.269531 11.96875 51.269531 12.515625 C 51.269531 13.058594 50.828125 13.503906 50.285156 13.503906 "
    fill-opacity="1" fill-rule="nonzero" />
  <path fill="#ff6b0c"
    d="M 40.929688 19.792969 L 32.9375 19.792969 C 32.394531 19.792969 31.953125 19.351562 31.953125 18.804688 C 31.953125 18.261719 32.394531 17.820312 32.9375 17.820312 L 40.929688 17.820312 C 41.472656 17.820312 41.914062 18.261719 41.914062 18.804688 C 41.914062 19.351562 41.472656 19.792969 40.929688 19.792969 "
    fill-opacity="1" fill-rule="nonzero" />
  <path fill="#ff6b0c"
    d="M 58.378906 19.792969 L 44.636719 19.792969 C 44.09375 19.792969 43.652344 19.351562 43.652344 18.804688 C 43.652344 18.261719 44.09375 17.820312 44.636719 17.820312 L 58.378906 17.820312 C 58.921875 17.820312 59.363281 18.261719 59.363281 18.804688 C 59.363281 19.351562 58.921875 19.792969 58.378906 19.792969 "
    fill-opacity="1" fill-rule="nonzero" />
  <path fill="#ff6b0c"
    d="M 51.578125 26.082031 L 32.9375 26.082031 C 32.394531 26.082031 31.953125 25.640625 31.953125 25.097656 C 31.953125 24.550781 32.394531 24.109375 32.9375 24.109375 L 51.578125 24.109375 C 52.121094 24.109375 52.5625 24.550781 52.5625 25.097656 C 52.5625 25.640625 52.121094 26.082031 51.578125 26.082031 "
    fill-opacity="1" fill-rule="nonzero" />
  <path fill="#ff6b0c"
    d="M 58.378906 26.082031 L 54.621094 26.082031 C 54.074219 26.082031 53.636719 25.640625 53.636719 25.097656 C 53.636719 24.550781 54.074219 24.109375 54.621094 24.109375 L 58.378906 24.109375 C 58.921875 24.109375 59.363281 24.550781 59.363281 25.097656 C 59.363281 25.640625 58.921875 26.082031 58.378906 26.082031 "
    fill-opacity="1" fill-rule="nonzero" />
</svg>