<svg xmlns="http://www.w3.org/2000/svg" xmlns:xlink="http://www.w3.org/1999/xlink" width="100"
  zoomAndPan="magnify" viewBox="0 0 75 74.999997" height="100" preserveAspectRatio="xMidYMid meet"
  version="1.0">
  <defs>
    <clipPath id="c51c06f741">
      <path d="M 1.5 1.5 L 73.5 1.5 L 73.5 73.5 L 1.5 73.5 Z M 1.5 1.5 " clip-rule="nonzero" />
    </clipPath>
  </defs>
  <g clip-path="url(#c51c06f741)">
    <path fill="#ff6b0c"
      d="M 1.976562 26.773438 L 1.976562 7.699219 C 1.976562 7.308594 2.015625 6.921875 2.09375 6.535156 C 2.167969 6.152344 2.28125 5.78125 2.433594 5.417969 C 2.582031 5.058594 2.765625 4.714844 2.984375 4.390625 C 3.199219 4.0625 3.449219 3.761719 3.722656 3.484375 C 4 3.210938 4.300781 2.960938 4.628906 2.746094 C 4.953125 2.527344 5.296875 2.34375 5.65625 2.195312 C 6.019531 2.042969 6.390625 1.929688 6.773438 1.855469 C 7.160156 1.777344 7.546875 1.738281 7.9375 1.738281 L 36.546875 1.738281 C 36.9375 1.738281 37.324219 1.777344 37.707031 1.855469 C 38.09375 1.929688 38.464844 2.042969 38.824219 2.195312 C 39.1875 2.34375 39.53125 2.527344 39.855469 2.746094 C 40.179688 2.960938 40.480469 3.210938 40.757812 3.484375 C 41.035156 3.761719 41.28125 4.0625 41.5 4.390625 C 41.71875 4.714844 41.902344 5.058594 42.050781 5.417969 C 42.199219 5.78125 42.3125 6.152344 42.390625 6.535156 C 42.46875 6.921875 42.507812 7.308594 42.507812 7.699219 L 42.507812 8.890625 C 42.507812 9.046875 42.476562 9.199219 42.414062 9.347656 C 42.355469 9.492188 42.269531 9.621094 42.15625 9.734375 C 42.046875 9.84375 41.917969 9.929688 41.769531 9.992188 C 41.625 10.050781 41.472656 10.082031 41.316406 10.082031 C 41.15625 10.082031 41.003906 10.050781 40.859375 9.992188 C 40.710938 9.929688 40.582031 9.84375 40.472656 9.734375 C 40.359375 9.621094 40.273438 9.492188 40.214844 9.347656 C 40.152344 9.199219 40.121094 9.046875 40.121094 8.890625 L 40.121094 7.699219 C 40.121094 7.222656 40.03125 6.769531 39.847656 6.332031 C 39.667969 5.894531 39.410156 5.507812 39.074219 5.171875 C 38.738281 4.835938 38.351562 4.578125 37.914062 4.394531 C 37.476562 4.214844 37.019531 4.121094 36.546875 4.121094 L 7.9375 4.121094 C 7.464844 4.121094 7.007812 4.214844 6.570312 4.394531 C 6.132812 4.578125 5.746094 4.835938 5.410156 5.171875 C 5.074219 5.507812 4.816406 5.894531 4.632812 6.332031 C 4.453125 6.769531 4.363281 7.222656 4.359375 7.699219 L 4.359375 26.773438 C 4.363281 27.246094 4.453125 27.703125 4.632812 28.140625 C 4.816406 28.578125 5.074219 28.964844 5.410156 29.300781 C 5.746094 29.632812 6.132812 29.894531 6.570312 30.074219 C 7.007812 30.257812 7.464844 30.347656 7.9375 30.347656 L 11.511719 30.347656 C 11.84375 30.347656 12.125 30.464844 12.355469 30.695312 L 19.015625 37.355469 C 19.175781 37.492188 19.351562 37.519531 19.542969 37.4375 C 19.734375 37.359375 19.839844 37.214844 19.859375 37.007812 L 19.859375 31.539062 C 19.859375 31.382812 19.886719 31.230469 19.949219 31.082031 C 20.007812 30.9375 20.09375 30.808594 20.207031 30.695312 C 20.316406 30.585938 20.449219 30.5 20.59375 30.4375 C 20.738281 30.378906 20.890625 30.347656 21.050781 30.347656 L 29.394531 30.347656 C 29.550781 30.347656 29.703125 30.378906 29.851562 30.4375 C 29.996094 30.5 30.125 30.585938 30.238281 30.695312 C 30.347656 30.808594 30.433594 30.9375 30.496094 31.082031 C 30.554688 31.230469 30.585938 31.382812 30.585938 31.539062 C 30.585938 31.699219 30.554688 31.851562 30.496094 31.996094 C 30.433594 32.140625 30.347656 32.269531 30.238281 32.382812 C 30.125 32.496094 29.996094 32.582031 29.851562 32.640625 C 29.703125 32.703125 29.550781 32.730469 29.394531 32.730469 L 22.242188 32.730469 L 22.242188 37.007812 C 22.242188 37.589844 22.078125 38.121094 21.757812 38.605469 C 21.433594 39.089844 21.003906 39.441406 20.464844 39.664062 C 19.925781 39.886719 19.375 39.941406 18.800781 39.828125 C 18.230469 39.714844 17.742188 39.453125 17.328125 39.042969 L 11.019531 32.730469 L 7.9375 32.730469 C 7.546875 32.730469 7.160156 32.691406 6.773438 32.617188 C 6.390625 32.539062 6.019531 32.425781 5.65625 32.277344 C 5.296875 32.125 4.953125 31.941406 4.628906 31.726562 C 4.300781 31.507812 4 31.261719 3.722656 30.984375 C 3.449219 30.707031 3.199219 30.40625 2.984375 30.082031 C 2.765625 29.757812 2.582031 29.414062 2.433594 29.050781 C 2.28125 28.691406 2.167969 28.316406 2.09375 27.933594 C 2.015625 27.550781 1.976562 27.164062 1.976562 26.773438 Z M 73.5 18.425781 L 73.5 37.5 C 73.5 37.890625 73.460938 38.277344 73.382812 38.664062 C 73.308594 39.046875 73.195312 39.417969 73.042969 39.78125 C 72.894531 40.140625 72.710938 40.484375 72.492188 40.808594 C 72.277344 41.136719 72.027344 41.4375 71.753906 41.710938 C 71.476562 41.988281 71.175781 42.234375 70.847656 42.453125 C 70.523438 42.671875 70.179688 42.855469 69.820312 43.003906 C 69.457031 43.15625 69.085938 43.269531 68.703125 43.34375 C 68.320312 43.421875 67.929688 43.460938 67.539062 43.460938 L 57.304688 43.460938 L 50.996094 49.769531 C 50.582031 50.179688 50.09375 50.445312 49.523438 50.558594 C 48.949219 50.671875 48.398438 50.617188 47.859375 50.394531 C 47.320312 50.171875 46.890625 49.816406 46.566406 49.332031 C 46.246094 48.851562 46.082031 48.316406 46.082031 47.734375 L 46.082031 43.460938 L 38.929688 43.460938 C 38.539062 43.460938 38.152344 43.421875 37.769531 43.34375 C 37.382812 43.269531 37.011719 43.15625 36.652344 43.003906 C 36.289062 42.855469 35.945312 42.671875 35.621094 42.453125 C 35.296875 42.234375 34.996094 41.988281 34.71875 41.710938 C 34.441406 41.4375 34.195312 41.136719 33.976562 40.808594 C 33.757812 40.484375 33.574219 40.140625 33.425781 39.78125 C 33.277344 39.417969 33.164062 39.046875 33.085938 38.664062 C 33.007812 38.277344 32.96875 37.890625 32.96875 37.5 L 32.96875 18.425781 C 32.96875 18.035156 33.007812 17.648438 33.085938 17.265625 C 33.164062 16.882812 33.277344 16.507812 33.425781 16.148438 C 33.574219 15.785156 33.757812 15.441406 33.976562 15.117188 C 34.195312 14.792969 34.441406 14.492188 34.71875 14.214844 C 34.996094 13.9375 35.296875 13.691406 35.621094 13.472656 C 35.945312 13.257812 36.289062 13.074219 36.652344 12.921875 C 37.011719 12.773438 37.382812 12.660156 37.769531 12.582031 C 38.152344 12.507812 38.539062 12.46875 38.929688 12.46875 L 67.539062 12.46875 C 67.929688 12.46875 68.320312 12.507812 68.703125 12.582031 C 69.085938 12.660156 69.457031 12.773438 69.820312 12.921875 C 70.179688 13.074219 70.523438 13.257812 70.847656 13.472656 C 71.175781 13.691406 71.476562 13.9375 71.753906 14.214844 C 72.027344 14.492188 72.277344 14.792969 72.492188 15.117188 C 72.710938 15.441406 72.894531 15.785156 73.042969 16.148438 C 73.195312 16.507812 73.308594 16.882812 73.382812 17.265625 C 73.460938 17.648438 73.5 18.035156 73.5 18.425781 Z M 71.117188 18.425781 C 71.117188 17.953125 71.023438 17.496094 70.84375 17.058594 C 70.660156 16.621094 70.402344 16.234375 70.066406 15.898438 C 69.730469 15.5625 69.34375 15.304688 68.90625 15.125 C 68.46875 14.941406 68.015625 14.851562 67.539062 14.851562 L 38.929688 14.851562 C 38.457031 14.851562 38 14.941406 37.5625 15.125 C 37.125 15.304688 36.738281 15.5625 36.402344 15.898438 C 36.066406 16.234375 35.808594 16.621094 35.628906 17.058594 C 35.445312 17.496094 35.355469 17.953125 35.355469 18.425781 L 35.355469 37.5 C 35.355469 37.972656 35.445312 38.429688 35.628906 38.867188 C 35.808594 39.304688 36.066406 39.691406 36.402344 40.027344 C 36.738281 40.363281 37.125 40.621094 37.5625 40.804688 C 38 40.984375 38.457031 41.074219 38.929688 41.074219 L 47.273438 41.074219 C 47.433594 41.074219 47.585938 41.105469 47.730469 41.167969 C 47.878906 41.226562 48.007812 41.3125 48.117188 41.425781 C 48.230469 41.535156 48.316406 41.664062 48.375 41.8125 C 48.4375 41.957031 48.46875 42.109375 48.46875 42.269531 L 48.46875 47.734375 C 48.484375 47.941406 48.589844 48.085938 48.78125 48.167969 C 48.972656 48.246094 49.152344 48.21875 49.308594 48.085938 L 55.96875 41.425781 C 56.199219 41.191406 56.480469 41.074219 56.8125 41.074219 L 67.539062 41.074219 C 68.015625 41.074219 68.46875 40.984375 68.90625 40.804688 C 69.34375 40.621094 69.730469 40.363281 70.066406 40.027344 C 70.402344 39.691406 70.660156 39.304688 70.84375 38.867188 C 71.023438 38.429688 71.117188 37.972656 71.117188 37.5 Z M 26.546875 14.851562 L 25.183594 19.621094 L 28.203125 19.621094 C 28.359375 19.621094 28.511719 19.648438 28.65625 19.710938 C 28.804688 19.769531 28.933594 19.855469 29.042969 19.96875 C 29.15625 20.082031 29.242188 20.210938 29.304688 20.355469 C 29.363281 20.5 29.394531 20.652344 29.394531 20.8125 C 29.394531 20.96875 29.363281 21.121094 29.304688 21.265625 C 29.242188 21.414062 29.15625 21.542969 29.042969 21.652344 C 28.933594 21.765625 28.804688 21.851562 28.65625 21.914062 C 28.511719 21.972656 28.359375 22.003906 28.203125 22.003906 L 24.503906 22.003906 L 23.386719 25.90625 C 23.316406 26.164062 23.171875 26.371094 22.960938 26.53125 C 22.746094 26.691406 22.507812 26.769531 22.242188 26.773438 C 22.132812 26.769531 22.023438 26.757812 21.914062 26.726562 C 21.761719 26.683594 21.625 26.613281 21.5 26.511719 C 21.378906 26.414062 21.277344 26.296875 21.199219 26.160156 C 21.125 26.019531 21.074219 25.871094 21.058594 25.714844 C 21.039062 25.558594 21.050781 25.40625 21.09375 25.253906 L 22.023438 22.003906 L 17.351562 22.003906 L 16.234375 25.90625 C 16.164062 26.164062 16.019531 26.371094 15.808594 26.53125 C 15.59375 26.691406 15.355469 26.769531 15.089844 26.773438 C 14.980469 26.769531 14.871094 26.757812 14.761719 26.726562 C 14.609375 26.683594 14.472656 26.613281 14.347656 26.511719 C 14.226562 26.414062 14.125 26.296875 14.046875 26.160156 C 13.972656 26.019531 13.921875 25.871094 13.90625 25.714844 C 13.886719 25.558594 13.898438 25.40625 13.941406 25.253906 L 14.871094 22.003906 L 11.511719 22.003906 C 11.355469 22.003906 11.203125 21.972656 11.058594 21.914062 C 10.910156 21.851562 10.78125 21.765625 10.671875 21.652344 C 10.558594 21.542969 10.472656 21.414062 10.410156 21.265625 C 10.351562 21.121094 10.320312 20.96875 10.320312 20.8125 C 10.320312 20.652344 10.351562 20.5 10.410156 20.355469 C 10.472656 20.210938 10.558594 20.082031 10.671875 19.96875 C 10.78125 19.855469 10.910156 19.769531 11.058594 19.710938 C 11.203125 19.648438 11.355469 19.621094 11.511719 19.621094 L 15.550781 19.621094 L 16.914062 14.851562 L 13.898438 14.851562 C 13.738281 14.851562 13.585938 14.820312 13.441406 14.761719 C 13.296875 14.699219 13.167969 14.613281 13.054688 14.5 C 12.941406 14.390625 12.855469 14.261719 12.796875 14.113281 C 12.734375 13.96875 12.707031 13.816406 12.707031 13.660156 C 12.707031 13.5 12.734375 13.347656 12.796875 13.203125 C 12.855469 13.058594 12.941406 12.929688 13.054688 12.816406 C 13.167969 12.703125 13.296875 12.617188 13.441406 12.558594 C 13.585938 12.496094 13.738281 12.46875 13.898438 12.46875 L 17.597656 12.46875 L 18.710938 8.5625 C 18.753906 8.410156 18.824219 8.273438 18.925781 8.152344 C 19.023438 8.027344 19.140625 7.925781 19.277344 7.851562 C 19.417969 7.773438 19.5625 7.726562 19.722656 7.710938 C 19.878906 7.691406 20.03125 7.703125 20.183594 7.746094 C 20.335938 7.789062 20.472656 7.863281 20.597656 7.960938 C 20.71875 8.058594 20.820312 8.175781 20.898438 8.3125 C 20.976562 8.449219 21.023438 8.597656 21.039062 8.753906 C 21.058594 8.910156 21.046875 9.066406 21.003906 9.21875 L 20.074219 12.46875 L 24.75 12.46875 L 25.863281 8.5625 C 25.90625 8.410156 25.976562 8.273438 26.078125 8.152344 C 26.175781 8.027344 26.292969 7.925781 26.429688 7.851562 C 26.570312 7.773438 26.714844 7.726562 26.875 7.710938 C 27.03125 7.691406 27.183594 7.703125 27.335938 7.746094 C 27.488281 7.789062 27.625 7.863281 27.75 7.960938 C 27.871094 8.058594 27.972656 8.175781 28.050781 8.3125 C 28.128906 8.449219 28.175781 8.597656 28.191406 8.753906 C 28.210938 8.910156 28.199219 9.066406 28.15625 9.21875 L 27.226562 12.46875 L 30.585938 12.46875 C 30.746094 12.46875 30.894531 12.496094 31.042969 12.558594 C 31.1875 12.617188 31.316406 12.703125 31.429688 12.816406 C 31.539062 12.929688 31.625 13.058594 31.6875 13.203125 C 31.746094 13.347656 31.777344 13.5 31.777344 13.660156 C 31.777344 13.816406 31.746094 13.96875 31.6875 14.113281 C 31.625 14.261719 31.539062 14.390625 31.429688 14.5 C 31.316406 14.613281 31.1875 14.699219 31.042969 14.761719 C 30.894531 14.820312 30.746094 14.851562 30.585938 14.851562 Z M 24.066406 14.851562 L 19.394531 14.851562 L 18.03125 19.621094 L 22.703125 19.621094 Z M 63.964844 27.964844 L 63.964844 35.117188 C 63.964844 35.589844 63.871094 36.046875 63.691406 36.484375 C 63.507812 36.921875 63.25 37.308594 62.914062 37.644531 C 62.578125 37.980469 62.191406 38.238281 61.753906 38.417969 C 61.316406 38.601562 60.863281 38.691406 60.386719 38.691406 L 54.425781 38.691406 C 52.636719 38.675781 50.976562 38.210938 49.441406 37.292969 C 49.246094 37.71875 48.953125 38.058594 48.5625 38.308594 C 48.171875 38.5625 47.742188 38.691406 47.273438 38.691406 L 44.890625 38.691406 C 44.574219 38.691406 44.269531 38.632812 43.980469 38.507812 C 43.6875 38.386719 43.429688 38.214844 43.207031 37.992188 C 42.980469 37.769531 42.808594 37.511719 42.6875 37.21875 C 42.566406 36.929688 42.507812 36.625 42.507812 36.308594 L 42.507812 25.578125 C 42.507812 25.261719 42.566406 24.960938 42.6875 24.667969 C 42.808594 24.375 42.980469 24.117188 43.207031 23.894531 C 43.429688 23.671875 43.6875 23.5 43.980469 23.378906 C 44.269531 23.257812 44.574219 23.195312 44.890625 23.195312 L 47.273438 23.195312 C 47.550781 23.195312 47.820312 23.242188 48.078125 23.335938 C 48.335938 23.429688 48.574219 23.5625 48.789062 23.738281 C 49 23.914062 49.175781 24.121094 49.320312 24.355469 C 49.460938 24.59375 49.558594 24.847656 49.613281 25.117188 C 49.898438 24.921875 50.15625 24.699219 50.394531 24.449219 C 51.390625 23.464844 51.941406 22.273438 52.046875 20.878906 C 51.980469 19.886719 52.28125 19.023438 52.953125 18.289062 C 53.6875 17.542969 54.574219 17.191406 55.621094 17.234375 C 56.144531 17.25 56.636719 17.390625 57.085938 17.660156 C 57.539062 17.929688 57.894531 18.292969 58.15625 18.75 C 58.617188 19.621094 58.878906 20.546875 58.949219 21.527344 C 59.015625 22.507812 58.882812 23.460938 58.546875 24.386719 L 60.386719 24.386719 C 60.863281 24.386719 61.316406 24.480469 61.753906 24.660156 C 62.191406 24.84375 62.578125 25.101562 62.914062 25.4375 C 63.25 25.769531 63.507812 26.15625 63.691406 26.59375 C 63.871094 27.035156 63.964844 27.488281 63.964844 27.964844 Z M 47.277344 36.308594 L 47.273438 25.578125 L 44.890625 25.578125 L 44.890625 36.308594 Z M 61.578125 27.964844 C 61.578125 27.804688 61.550781 27.652344 61.488281 27.507812 C 61.429688 27.363281 61.34375 27.234375 61.230469 27.121094 C 61.117188 27.007812 60.988281 26.921875 60.84375 26.863281 C 60.699219 26.800781 60.546875 26.773438 60.386719 26.773438 L 56.8125 26.773438 C 56.710938 26.773438 56.609375 26.757812 56.515625 26.734375 C 56.417969 26.707031 56.324219 26.671875 56.234375 26.625 C 56.148438 26.574219 56.066406 26.515625 55.992188 26.445312 C 55.917969 26.378906 55.855469 26.300781 55.800781 26.214844 C 55.75 26.128906 55.707031 26.039062 55.675781 25.941406 C 55.644531 25.847656 55.625 25.75 55.621094 25.648438 C 55.617188 25.546875 55.621094 25.445312 55.640625 25.347656 C 55.660156 25.25 55.691406 25.15625 55.738281 25.0625 C 56.804688 22.835938 56.710938 20.925781 56.140625 20.019531 C 56.046875 19.871094 55.851562 19.621094 55.621094 19.621094 C 55.265625 19.585938 54.953125 19.691406 54.6875 19.925781 C 54.484375 20.164062 54.398438 20.4375 54.425781 20.746094 C 54.402344 21.75 54.191406 22.714844 53.792969 23.636719 C 53.394531 24.5625 52.839844 25.378906 52.128906 26.085938 C 51.441406 26.84375 50.621094 27.394531 49.660156 27.738281 L 49.660156 34.570312 C 51.050781 35.6875 52.640625 36.265625 54.425781 36.308594 L 60.386719 36.308594 C 60.546875 36.308594 60.699219 36.277344 60.84375 36.21875 C 60.988281 36.15625 61.117188 36.070312 61.230469 35.957031 C 61.34375 35.847656 61.429688 35.71875 61.488281 35.570312 C 61.550781 35.425781 61.578125 35.273438 61.578125 35.117188 Z M 35.355469 54.1875 C 35.355469 54.5 35.324219 54.8125 35.261719 55.117188 C 35.199219 55.425781 35.109375 55.722656 34.988281 56.011719 C 34.871094 56.300781 34.722656 56.578125 34.550781 56.835938 C 34.375 57.097656 34.175781 57.335938 33.957031 57.558594 C 33.734375 57.78125 33.496094 57.976562 33.234375 58.152344 C 32.972656 58.324219 32.699219 58.472656 32.410156 58.59375 C 32.121094 58.710938 31.824219 58.804688 31.515625 58.863281 C 31.210938 58.925781 30.898438 58.957031 30.585938 58.957031 L 30.585938 67.300781 C 30.585938 67.570312 30.503906 67.808594 30.34375 68.023438 C 30.179688 68.234375 29.96875 68.378906 29.710938 68.449219 C 29.453125 68.523438 29.199219 68.507812 28.953125 68.410156 C 28.703125 68.308594 28.511719 68.144531 28.371094 67.914062 C 28.246094 67.710938 25.1875 62.972656 16.28125 62.570312 L 16.28125 69.089844 C 16.28125 69.363281 16.253906 69.632812 16.203125 69.902344 C 16.148438 70.171875 16.070312 70.433594 15.964844 70.6875 C 15.859375 70.9375 15.730469 71.179688 15.578125 71.40625 C 15.425781 71.636719 15.253906 71.847656 15.058594 72.039062 C 14.867188 72.234375 14.65625 72.40625 14.425781 72.558594 C 14.199219 72.710938 13.960938 72.839844 13.707031 72.945312 C 13.453125 73.050781 13.191406 73.128906 12.921875 73.179688 C 12.65625 73.234375 12.382812 73.261719 12.109375 73.261719 C 11.835938 73.261719 11.5625 73.234375 11.296875 73.179688 C 11.027344 73.128906 10.765625 73.050781 10.511719 72.945312 C 10.257812 72.839844 10.019531 72.710938 9.792969 72.558594 C 9.5625 72.40625 9.351562 72.234375 9.160156 72.039062 C 8.964844 71.847656 8.792969 71.636719 8.640625 71.40625 C 8.488281 71.179688 8.359375 70.9375 8.253906 70.6875 C 8.148438 70.433594 8.070312 70.171875 8.015625 69.902344 C 7.964844 69.632812 7.9375 69.363281 7.9375 69.089844 L 7.9375 62.179688 C 7.460938 62.039062 7 61.855469 6.558594 61.632812 C 6.113281 61.410156 5.691406 61.148438 5.296875 60.847656 C 4.898438 60.546875 4.53125 60.214844 4.195312 59.851562 C 3.855469 59.488281 3.554688 59.09375 3.289062 58.675781 C 3.019531 58.257812 2.792969 57.816406 2.601562 57.359375 C 2.414062 56.898438 2.265625 56.425781 2.164062 55.9375 C 2.058594 55.453125 1.996094 54.960938 1.980469 54.464844 C 1.964844 53.96875 1.992188 53.472656 2.0625 52.980469 C 2.136719 52.488281 2.25 52.007812 2.410156 51.539062 C 2.566406 51.066406 2.765625 50.613281 3.003906 50.175781 C 3.242188 49.742188 3.519531 49.328125 3.832031 48.941406 C 4.144531 48.554688 4.488281 48.199219 4.863281 47.875 C 5.238281 47.550781 5.640625 47.261719 6.070312 47.007812 C 6.496094 46.753906 6.945312 46.542969 7.410156 46.367188 C 7.875 46.195312 8.351562 46.0625 8.84375 45.976562 C 9.332031 45.886719 9.824219 45.84375 10.320312 45.84375 L 15.089844 45.84375 C 24.933594 45.84375 28.242188 40.675781 28.375 40.457031 C 28.515625 40.230469 28.710938 40.066406 28.960938 39.972656 C 29.207031 39.875 29.460938 39.863281 29.71875 39.933594 C 29.972656 40.003906 30.183594 40.148438 30.34375 40.359375 C 30.503906 40.570312 30.585938 40.808594 30.585938 41.074219 L 30.585938 49.421875 C 30.898438 49.421875 31.210938 49.453125 31.515625 49.511719 C 31.824219 49.574219 32.121094 49.664062 32.410156 49.785156 C 32.699219 49.90625 32.972656 50.050781 33.234375 50.226562 C 33.496094 50.398438 33.734375 50.597656 33.957031 50.820312 C 34.175781 51.039062 34.375 51.28125 34.550781 51.539062 C 34.722656 51.800781 34.871094 52.074219 34.988281 52.363281 C 35.109375 52.652344 35.199219 52.953125 35.261719 53.257812 C 35.324219 53.566406 35.355469 53.875 35.355469 54.1875 Z M 10.320312 60.148438 L 13.898438 60.148438 L 13.898438 48.226562 L 10.320312 48.226562 C 9.929688 48.226562 9.542969 48.265625 9.160156 48.34375 C 8.773438 48.417969 8.402344 48.53125 8.039062 48.683594 C 7.679688 48.832031 7.335938 49.015625 7.011719 49.234375 C 6.683594 49.449219 6.382812 49.699219 6.105469 49.972656 C 5.828125 50.25 5.582031 50.550781 5.367188 50.878906 C 5.148438 51.203125 4.964844 51.546875 4.816406 51.90625 C 4.664062 52.269531 4.550781 52.640625 4.476562 53.027344 C 4.398438 53.410156 4.359375 53.796875 4.359375 54.1875 C 4.359375 54.582031 4.398438 54.96875 4.476562 55.351562 C 4.550781 55.734375 4.664062 56.109375 4.816406 56.46875 C 4.964844 56.832031 5.148438 57.175781 5.367188 57.5 C 5.582031 57.824219 5.828125 58.125 6.105469 58.402344 C 6.382812 58.679688 6.683594 58.925781 7.011719 59.144531 C 7.335938 59.363281 7.679688 59.546875 8.039062 59.695312 C 8.402344 59.84375 8.773438 59.957031 9.160156 60.035156 C 9.542969 60.109375 9.929688 60.148438 10.320312 60.148438 Z M 13.898438 69.089844 L 13.898438 62.53125 L 10.320312 62.53125 L 10.320312 69.089844 C 10.320312 69.328125 10.367188 69.554688 10.457031 69.773438 C 10.546875 69.992188 10.675781 70.1875 10.84375 70.355469 C 11.011719 70.519531 11.207031 70.652344 11.425781 70.742188 C 11.644531 70.832031 11.871094 70.878906 12.109375 70.878906 C 12.347656 70.878906 12.574219 70.832031 12.792969 70.742188 C 13.011719 70.652344 13.207031 70.519531 13.375 70.355469 C 13.542969 70.1875 13.671875 69.992188 13.761719 69.773438 C 13.851562 69.554688 13.898438 69.328125 13.898438 69.089844 Z M 28.203125 44.105469 C 26.101562 45.855469 22.324219 47.925781 16.28125 48.179688 L 16.28125 60.199219 C 22.324219 60.449219 26.101562 62.523438 28.203125 64.273438 Z M 32.96875 54.1875 C 32.96875 53.871094 32.910156 53.570312 32.789062 53.277344 C 32.667969 52.984375 32.496094 52.726562 32.269531 52.503906 C 32.046875 52.28125 31.789062 52.109375 31.496094 51.988281 C 31.207031 51.867188 30.902344 51.804688 30.585938 51.804688 L 30.585938 56.574219 C 30.902344 56.574219 31.207031 56.511719 31.496094 56.390625 C 31.789062 56.269531 32.046875 56.097656 32.269531 55.875 C 32.496094 55.648438 32.667969 55.390625 32.789062 55.101562 C 32.910156 54.808594 32.96875 54.503906 32.96875 54.1875 Z M 42.507812 52.996094 L 38.929688 52.996094 C 38.773438 52.996094 38.621094 53.027344 38.472656 53.085938 C 38.328125 53.148438 38.199219 53.234375 38.085938 53.347656 C 37.976562 53.457031 37.890625 53.585938 37.828125 53.734375 C 37.769531 53.878906 37.738281 54.03125 37.738281 54.1875 C 37.738281 54.347656 37.769531 54.5 37.828125 54.644531 C 37.890625 54.789062 37.976562 54.917969 38.085938 55.03125 C 38.199219 55.144531 38.328125 55.230469 38.472656 55.289062 C 38.621094 55.351562 38.773438 55.378906 38.929688 55.378906 L 42.507812 55.378906 C 42.664062 55.378906 42.816406 55.351562 42.960938 55.289062 C 43.109375 55.230469 43.238281 55.144531 43.347656 55.03125 C 43.460938 54.917969 43.546875 54.789062 43.609375 54.644531 C 43.667969 54.5 43.699219 54.347656 43.699219 54.1875 C 43.699219 54.03125 43.667969 53.878906 43.609375 53.734375 C 43.546875 53.585938 43.460938 53.457031 43.347656 53.347656 C 43.238281 53.234375 43.109375 53.148438 42.960938 53.085938 C 42.816406 53.027344 42.664062 52.996094 42.507812 52.996094 Z M 42.882812 59.019531 L 39.308594 57.828125 C 39.15625 57.777344 39.003906 57.757812 38.847656 57.765625 C 38.6875 57.777344 38.539062 57.820312 38.394531 57.890625 C 38.253906 57.960938 38.132812 58.054688 38.027344 58.175781 C 37.925781 58.292969 37.847656 58.429688 37.796875 58.578125 C 37.746094 58.730469 37.726562 58.882812 37.738281 59.039062 C 37.75 59.199219 37.792969 59.347656 37.863281 59.488281 C 37.933594 59.632812 38.027344 59.753906 38.148438 59.859375 C 38.269531 59.960938 38.402344 60.039062 38.554688 60.085938 L 42.128906 61.28125 C 42.277344 61.328125 42.433594 61.347656 42.589844 61.335938 C 42.746094 61.324219 42.898438 61.285156 43.039062 61.214844 C 43.179688 61.144531 43.300781 61.046875 43.402344 60.929688 C 43.507812 60.808594 43.585938 60.675781 43.632812 60.523438 C 43.683594 60.375 43.703125 60.222656 43.691406 60.066406 C 43.679688 59.90625 43.640625 59.757812 43.570312 59.617188 C 43.5 59.476562 43.40625 59.351562 43.285156 59.25 C 43.167969 59.144531 43.035156 59.070312 42.882812 59.019531 Z M 38.929688 50.613281 C 39.058594 50.613281 39.183594 50.59375 39.308594 50.550781 L 42.882812 49.359375 C 43.035156 49.308594 43.167969 49.234375 43.289062 49.128906 C 43.410156 49.027344 43.503906 48.902344 43.574219 48.761719 C 43.644531 48.621094 43.6875 48.46875 43.699219 48.3125 C 43.710938 48.15625 43.691406 48 43.640625 47.851562 C 43.589844 47.699219 43.511719 47.566406 43.410156 47.445312 C 43.304688 47.328125 43.183594 47.230469 43.039062 47.160156 C 42.898438 47.089844 42.75 47.050781 42.589844 47.039062 C 42.433594 47.027344 42.28125 47.046875 42.128906 47.097656 L 38.554688 48.289062 C 38.277344 48.382812 38.0625 48.554688 37.910156 48.804688 C 37.757812 49.054688 37.707031 49.324219 37.753906 49.613281 C 37.800781 49.898438 37.9375 50.140625 38.160156 50.328125 C 38.382812 50.519531 38.636719 50.613281 38.929688 50.613281 Z M 38.929688 50.613281 "
      fill-opacity="1" fill-rule="nonzero" />
  </g>
</svg>